<svg width="55.894531" height="55.894531" viewBox="0 0 55.8945 55.8945" fill="none" xmlns="http://www.w3.org/2000/svg" xmlns:xlink="http://www.w3.org/1999/xlink">
	<desc>
			Created with Pixso.
	</desc>
	<defs>
		<linearGradient x1="28.000008" y1="18.000002" x2="28.000008" y2="55.894203" id="paint_linear_63_103_0" gradientUnits="userSpaceOnUse">
			<stop stop-color="#E4C5C3"/>
			<stop offset="1.000000" stop-color="#CF9697"/>
		</linearGradient>
	</defs>
	<circle id="Ellipse 51" cx="27.947266" cy="27.947266" r="27.947083" fill="url(#paint_linear_63_103_0)" fill-opacity="1.000000"/>
	<path id="Vector 161" d="M20 42C20 42 24.72 42 28 42C31.27 42 36 42 36 42" stroke="#000000" stroke-opacity="1.000000" stroke-width="3.000000" stroke-linejoin="round" stroke-linecap="round"/>
	<path id="Vector 162" d="M9 19C9 19 13.72 19 17 19C20.27 19 25 16.5 25 16.5" stroke="#000000" stroke-opacity="1.000000" stroke-width="3.000000" stroke-linejoin="round" stroke-linecap="round"/>
	<path id="Vector 163" d="M31 16.5C31 16.5 35.72 19 39 19C42.27 19 47 19 47 19" stroke="#000000" stroke-opacity="1.000000" stroke-width="3.000000" stroke-linejoin="round" stroke-linecap="round"/>
	<path id="Ellipse 61" d="M17.5 27C14.46 27 12 24.68 12 21.82C12 18.96 14.46 19 17.5 19C20.53 19 23 18.96 23 21.82C23 24.68 20.53 27 17.5 27Z" stroke="#000000" stroke-opacity="1.000000" stroke-width="3.000000"/>
	<path id="Ellipse 62" d="M38.5 27C35.46 27 33 24.68 33 21.82C33 18.96 35.46 19 38.5 19C41.53 19 44 18.96 44 21.82C44 24.68 41.53 27 38.5 27Z" stroke="#000000" stroke-opacity="1.000000" stroke-width="3.000000"/>
</svg>
