<svg width="67.892578" height="67.892578" viewBox="0 0 67.8926 67.8926" fill="none" xmlns="http://www.w3.org/2000/svg" xmlns:xlink="http://www.w3.org/1999/xlink">
	<desc>
			Created with Pixso.
	</desc>
	<defs/>
	<circle id="Ellipse 49" cx="33.946289" cy="33.947266" r="33.946449" fill="#DEA185" fill-opacity="1.000000"/>
	<path id="Vector 151" d="M10.46 31.68L10.45 31.71C9.17 32.27 7.72 31.7 7.16 30.42C6.59 29.14 7.16 27.69 8.44 27.13L8.46 27.14L10.46 31.68ZM24.27 20.19L24.28 20.17C25.56 19.6 27.01 20.17 27.57 21.45C28.13 22.73 27.57 24.18 26.29 24.75L26.26 24.74L24.27 20.19Z" fill="#DEA185" fill-opacity="1.000000" fill-rule="nonzero"/>
	<path id="Vector 151" d="M9.44 29.42L25.28 22.46" stroke="#000000" stroke-opacity="1.000000" stroke-width="5.000000" stroke-linecap="round"/>
	<path id="Vector 155" d="M19.34 49.73C19.34 49.73 27.89 46.97 33.55 46.97C39.2 46.97 47.76 49.73 47.76 49.73" stroke="#000000" stroke-opacity="1.000000" stroke-width="5.000000" stroke-linecap="round"/>
	<path id="Vector 154" d="M55.34 31.68L55.35 31.71C56.64 32.27 58.09 31.7 58.65 30.42C59.21 29.14 58.65 27.69 57.37 27.13L57.34 27.14L55.34 31.68ZM41.54 20.19L41.53 20.17C40.25 19.6 38.8 20.17 38.23 21.45C37.67 22.73 38.23 24.18 39.52 24.75L39.54 24.74L41.54 20.19Z" fill="#DEA185" fill-opacity="1.000000" fill-rule="nonzero"/>
	<path id="Vector 154" d="M56.36 29.42L40.52 22.46" stroke="#000000" stroke-opacity="1.000000" stroke-width="5.000000" stroke-linecap="round"/>
</svg>
