<svg width="268" height="340" viewBox="0 0 268 340" fill="none" xmlns="http://www.w3.org/2000/svg">
<path d="M0.5 0.5H267.5V307C267.5 324.949 252.949 339.5 235 339.5H33C15.0507 339.5 0.5 324.949 0.5 307V0.5Z" fill="#FCF2E1" stroke="#9E9C9C"/>
<mask id="mask0_68_536" style="mask-type:alpha" maskUnits="userSpaceOnUse" x="0" y="0" width="268" height="340">
<path d="M0.5 0.5H267.5V307C267.5 324.949 252.949 339.5 235 339.5H33C15.0507 339.5 0.5 324.949 0.5 307V0.5Z" fill="#FCF2E1" stroke="#9E9C9C"/>
</mask>
<g mask="url(#mask0_68_536)">
<circle cx="216.947" cy="258.947" r="27.9471" fill="#AEC291"/>
<path d="M216.623 277.145C208.175 277.145 208.5 263.496 208.5 263.496L225.396 263.496C225.396 263.496 225.071 277.145 216.623 277.145Z" fill="black" stroke="black" stroke-width="5" stroke-linecap="round"/>
<path d="M200.374 251.473C200.374 251.473 200.988 244.648 206.873 244.648C212.073 244.649 212.073 251.473 212.073 251.473" stroke="black" stroke-width="5" stroke-linecap="round"/>
<path d="M221.497 251.473C221.497 251.473 222.111 244.648 227.996 244.648C233.196 244.649 233.196 251.473 233.196 251.473" stroke="black" stroke-width="5" stroke-linecap="round"/>
<rect x="-50" y="-39" width="406" height="145" fill="#F7B9BC"/>
<path d="M49.006 48H45.226V34.014H29.854V48H26.074V18.012H29.854V30.696H45.226V18.012H49.006V48ZM76.2729 36.702C76.2729 38.578 76.0209 40.244 75.5169 41.7C75.0409 43.128 74.3409 44.346 73.4169 45.354C72.5209 46.362 71.4149 47.132 70.0989 47.664C68.8109 48.168 67.3689 48.42 65.7729 48.42C64.2889 48.42 62.9169 48.168 61.6569 47.664C60.3969 47.132 59.3049 46.362 58.3809 45.354C57.4569 44.346 56.7289 43.128 56.1969 41.7C55.6929 40.244 55.4409 38.578 55.4409 36.702C55.4409 34.21 55.8609 32.11 56.7009 30.402C57.5409 28.666 58.7449 27.35 60.3129 26.454C61.8809 25.53 63.7429 25.068 65.8989 25.068C67.9429 25.068 69.7349 25.53 71.2749 26.454C72.8429 27.35 74.0609 28.666 74.9289 30.402C75.8249 32.11 76.2729 34.21 76.2729 36.702ZM59.2629 36.702C59.2629 38.466 59.4869 40.006 59.9349 41.322C60.4109 42.61 61.1389 43.604 62.1189 44.304C63.0989 45.004 64.3449 45.354 65.8569 45.354C67.3689 45.354 68.6149 45.004 69.5949 44.304C70.5749 43.604 71.2889 42.61 71.7369 41.322C72.2129 40.006 72.4509 38.466 72.4509 36.702C72.4509 34.91 72.2129 33.384 71.7369 32.124C71.2609 30.864 70.5329 29.898 69.5529 29.226C68.6009 28.526 67.3549 28.176 65.8149 28.176C63.5189 28.176 61.8529 28.932 60.8169 30.444C59.7809 31.956 59.2629 34.042 59.2629 36.702ZM100.233 31.158C100.233 32.558 99.8125 33.65 98.9725 34.434C98.1325 35.218 97.0545 35.75 95.7385 36.03V36.198C97.1385 36.394 98.3565 36.898 99.3925 37.71C100.429 38.494 100.947 39.726 100.947 41.406C100.947 42.358 100.765 43.24 100.401 44.052C100.065 44.864 99.5325 45.564 98.8045 46.152C98.0765 46.74 97.1385 47.202 95.9905 47.538C94.8425 47.846 93.4565 48 91.8325 48H82.1305V25.488H91.7905C93.3865 25.488 94.8145 25.67 96.0745 26.034C97.3625 26.37 98.3705 26.958 99.0985 27.798C99.8545 28.61 100.233 29.73 100.233 31.158ZM97.1245 41.406C97.1245 40.118 96.6345 39.194 95.6545 38.634C94.6745 38.074 93.2325 37.794 91.3285 37.794H85.8265V45.018H91.4125C93.2605 45.018 94.6745 44.752 95.6545 44.22C96.6345 43.66 97.1245 42.722 97.1245 41.406ZM96.4945 31.62C96.4945 30.556 96.1025 29.786 95.3185 29.31C94.5625 28.806 93.3165 28.554 91.5805 28.554H85.8265V34.728H90.9085C92.7285 34.728 94.1145 34.476 95.0665 33.972C96.0185 33.468 96.4945 32.684 96.4945 31.62ZM114.856 25.11C117.6 25.11 119.63 25.712 120.946 26.916C122.262 28.12 122.92 30.038 122.92 32.67V48H120.232L119.518 44.808H119.35C118.706 45.62 118.034 46.306 117.334 46.866C116.662 47.398 115.878 47.79 114.982 48.042C114.114 48.294 113.05 48.42 111.79 48.42C110.446 48.42 109.228 48.182 108.136 47.706C107.072 47.23 106.232 46.502 105.616 45.522C105 44.514 104.692 43.254 104.692 41.742C104.692 39.502 105.574 37.78 107.338 36.576C109.102 35.344 111.818 34.672 115.486 34.56L119.308 34.434V33.09C119.308 31.214 118.902 29.912 118.09 29.184C117.278 28.456 116.13 28.092 114.646 28.092C113.47 28.092 112.35 28.274 111.286 28.638C110.222 28.974 109.228 29.366 108.304 29.814L107.17 27.042C108.15 26.51 109.312 26.062 110.656 25.698C112 25.306 113.4 25.11 114.856 25.11ZM115.948 37.122C113.148 37.234 111.202 37.682 110.11 38.466C109.046 39.25 108.514 40.356 108.514 41.784C108.514 43.044 108.892 43.968 109.648 44.556C110.432 45.144 111.426 45.438 112.63 45.438C114.534 45.438 116.116 44.92 117.376 43.884C118.636 42.82 119.266 41.196 119.266 39.012V36.996L115.948 37.122ZM131.259 48H126.975L133.401 38.55C132.533 38.326 131.693 37.976 130.881 37.5C130.069 36.996 129.411 36.31 128.907 35.442C128.403 34.546 128.151 33.44 128.151 32.124C128.151 29.968 128.879 28.33 130.335 27.21C131.791 26.062 133.723 25.488 136.131 25.488H146.211V48H142.515V39.054H137.055L131.259 48ZM131.721 32.166C131.721 33.454 132.197 34.42 133.149 35.064C134.129 35.68 135.487 35.988 137.223 35.988H142.515V28.554H136.509C134.801 28.554 133.569 28.89 132.813 29.562C132.085 30.234 131.721 31.102 131.721 32.166ZM43.798 67.026C43.798 69.07 43.154 70.694 41.866 71.898C40.578 73.074 38.856 73.83 36.7 74.166V74.334C39.22 74.67 41.138 75.454 42.454 76.686C43.77 77.918 44.428 79.528 44.428 81.516C44.428 83.28 43.98 84.834 43.084 86.178C42.188 87.494 40.844 88.53 39.052 89.286C37.26 90.042 35.02 90.42 32.332 90.42C30.708 90.42 29.154 90.294 27.67 90.042C26.214 89.818 24.856 89.398 23.596 88.782V85.338C24.464 85.758 25.388 86.122 26.368 86.43C27.376 86.71 28.384 86.934 29.392 87.102C30.4 87.242 31.366 87.312 32.29 87.312C34.978 87.312 37.008 86.808 38.38 85.8C39.78 84.792 40.48 83.364 40.48 81.516C40.48 79.612 39.668 78.226 38.044 77.358C36.42 76.49 34.152 76.056 31.24 76.056H26.956V72.906H31.03C33.018 72.906 34.656 72.682 35.944 72.234C37.26 71.786 38.24 71.156 38.884 70.344C39.556 69.504 39.892 68.524 39.892 67.404C39.892 65.892 39.332 64.73 38.212 63.918C37.092 63.106 35.636 62.7 33.844 62.7C31.968 62.7 30.4 62.938 29.14 63.414C27.908 63.89 26.704 64.506 25.528 65.262L23.722 62.7C24.506 62.112 25.402 61.594 26.41 61.146C27.446 60.67 28.594 60.292 29.854 60.012C31.114 59.732 32.458 59.592 33.886 59.592C36.042 59.592 37.848 59.914 39.304 60.558C40.788 61.202 41.908 62.084 42.664 63.204C43.42 64.296 43.798 65.57 43.798 67.026ZM58.7874 67.11C61.5314 67.11 63.5614 67.712 64.8774 68.916C66.1934 70.12 66.8514 72.038 66.8514 74.67V90H64.1634L63.4494 86.808H63.2814C62.6374 87.62 61.9654 88.306 61.2654 88.866C60.5934 89.398 59.8094 89.79 58.9134 90.042C58.0454 90.294 56.9814 90.42 55.7214 90.42C54.3774 90.42 53.1594 90.182 52.0674 89.706C51.0034 89.23 50.1634 88.502 49.5474 87.522C48.9314 86.514 48.6234 85.254 48.6234 83.742C48.6234 81.502 49.5054 79.78 51.2694 78.576C53.0334 77.344 55.7494 76.672 59.4174 76.56L63.2394 76.434V75.09C63.2394 73.214 62.8334 71.912 62.0214 71.184C61.2094 70.456 60.0614 70.092 58.5774 70.092C57.4014 70.092 56.2814 70.274 55.2174 70.638C54.1534 70.974 53.1594 71.366 52.2354 71.814L51.1014 69.042C52.0814 68.51 53.2434 68.062 54.5874 67.698C55.9314 67.306 57.3314 67.11 58.7874 67.11ZM59.8794 79.122C57.0794 79.234 55.1334 79.682 54.0414 80.466C52.9774 81.25 52.4454 82.356 52.4454 83.784C52.4454 85.044 52.8234 85.968 53.5794 86.556C54.3634 87.144 55.3574 87.438 56.5614 87.438C58.4654 87.438 60.0474 86.92 61.3074 85.884C62.5674 84.82 63.1974 83.196 63.1974 81.012V78.996L59.8794 79.122ZM92.8304 67.488V90H89.1344V70.638H77.5004V90H73.8044V67.488H92.8304ZM103.499 81.222C103.499 81.474 103.485 81.838 103.457 82.314C103.457 82.762 103.443 83.252 103.415 83.784C103.387 84.288 103.359 84.778 103.331 85.254C103.303 85.702 103.275 86.066 103.247 86.346L115.301 67.488H119.837V90H116.393V76.728C116.393 76.28 116.393 75.692 116.393 74.964C116.421 74.236 116.449 73.522 116.477 72.822C116.505 72.094 116.533 71.548 116.561 71.184L104.591 90H100.013V67.488H103.499V81.222ZM136.032 90.42C134.044 90.42 132.266 90.014 130.698 89.202C129.158 88.39 127.94 87.13 127.044 85.422C126.176 83.714 125.742 81.53 125.742 78.87C125.742 76.098 126.204 73.844 127.128 72.108C128.052 70.372 129.298 69.098 130.866 68.286C132.462 67.474 134.268 67.068 136.284 67.068C137.432 67.068 138.538 67.194 139.602 67.446C140.666 67.67 141.534 67.95 142.206 68.286L141.072 71.352C140.4 71.1 139.616 70.862 138.72 70.638C137.824 70.414 136.984 70.302 136.2 70.302C134.688 70.302 133.442 70.624 132.462 71.268C131.482 71.912 130.754 72.864 130.278 74.124C129.802 75.384 129.564 76.952 129.564 78.828C129.564 80.62 129.802 82.146 130.278 83.406C130.754 84.666 131.468 85.618 132.42 86.262C133.372 86.906 134.562 87.228 135.99 87.228C137.222 87.228 138.3 87.102 139.224 86.85C140.176 86.598 141.044 86.29 141.828 85.926V89.202C141.072 89.594 140.232 89.888 139.308 90.084C138.412 90.308 137.32 90.42 136.032 90.42ZM157.555 76.728C159.515 76.728 161.139 76.966 162.427 77.442C163.715 77.918 164.681 78.632 165.325 79.584C165.997 80.508 166.333 81.684 166.333 83.112C166.333 84.512 166.011 85.73 165.367 86.766C164.751 87.802 163.785 88.6 162.469 89.16C161.153 89.72 159.459 90 157.387 90H147.181V67.488H150.877V76.728H157.555ZM162.637 83.322C162.637 81.95 162.147 81.026 161.167 80.55C160.215 80.046 158.871 79.794 157.135 79.794H150.877V87.018H157.219C158.787 87.018 160.075 86.738 161.083 86.178C162.119 85.618 162.637 84.666 162.637 83.322Z" fill="black"/>
<circle cx="221.947" cy="162.947" r="27.9471" fill="#EDB39B"/>
<mask id="mask1_68_536" style="mask-type:alpha" maskUnits="userSpaceOnUse" x="194" y="135" width="56" height="56">
<circle cx="221.947" cy="162.947" r="27.9471" fill="#EDB39B"/>
</mask>
<g mask="url(#mask1_68_536)">
<g filter="url(#filter0_f_68_536)">
<path d="M221.5 165.5L197 175L192.5 176.5L192 156L251.5 155L250 175L221.5 165.5Z" fill="#E38863"/>
</g>
</g>
<path d="M213 176.543C213 176.543 217.393 166.249 223 167.044C227.989 167.751 230.5 176.543 230.5 176.543" stroke="black" stroke-width="4" stroke-linecap="round" stroke-linejoin="round"/>
<path d="M201 155.5L215.5 153L204.5 159.5" stroke="black" stroke-width="4" stroke-linecap="round" stroke-linejoin="round"/>
<path d="M242.5 155.5L228 153L239 159.5" stroke="black" stroke-width="4" stroke-linecap="round" stroke-linejoin="round"/>
<circle cx="133.947" cy="164.947" r="27.9471" fill="url(#paint0_linear_68_536)"/>
<path d="M126 179C126 179 130.727 179 134 179C137.273 179 142 179 142 179" stroke="black" stroke-width="3" stroke-linecap="round" stroke-linejoin="round"/>
<path d="M115 156C115 156 119.727 156 123 156C126.273 156 131 153.5 131 153.5" stroke="black" stroke-width="3" stroke-linecap="round" stroke-linejoin="round"/>
<path d="M137 153.5C137 153.5 141.727 156 145 156C148.273 156 153 156 153 156" stroke="black" stroke-width="3" stroke-linecap="round" stroke-linejoin="round"/>
<path d="M129 158.824C129 161.682 126.538 164 123.5 164C120.462 164 118 161.682 118 158.824C118 155.965 120.462 156 123.5 156C126.538 156 129 155.965 129 158.824Z" stroke="black" stroke-width="3"/>
<path d="M150 158.824C150 161.682 147.538 164 144.5 164C141.462 164 139 161.682 139 158.824C139 155.965 141.462 156 144.5 156C147.538 156 150 155.965 150 158.824Z" stroke="black" stroke-width="3"/>
<circle cx="133.947" cy="257.947" r="27.9471" fill="#C7D8A9"/>
<ellipse cx="123.575" cy="251.874" rx="3.57463" ry="4.87449" fill="black"/>
<ellipse cx="144.372" cy="251.874" rx="3.57463" ry="4.87449" fill="black"/>
<path d="M126.002 265C126.002 265 125.677 272.149 134.125 272.149C142.573 272.149 142.898 265 142.898 265" stroke="black" stroke-width="5" stroke-linecap="round"/>
<circle cx="50.9471" cy="255.947" r="27.9471" fill="#DA99AF"/>
<path d="M46 248C46 251.009 45.0879 253.057 45.0879 253.057C45.0879 253.057 41.375 251.982 38.9257 251.79C37.3797 251.668 34.9546 251.79 34.9546 251.79C34.3505 250.698 34 249.397 34 248C34 244.134 36.6863 241 40 241C43.3137 241 46 244.134 46 248Z" fill="black"/>
<path d="M59 261H42C42 261 42.4857 271 50.7429 271C58.031 271 59 261 59 261Z" fill="black" stroke="black" stroke-width="2" stroke-linecap="round"/>
<path d="M56 248C56 251.009 56.9121 253.057 56.9121 253.057C56.9121 253.057 60.625 251.982 63.0743 251.79C64.6203 251.668 67.0454 251.79 67.0454 251.79C67.6495 250.698 68 249.397 68 248C68 244.134 65.3137 241 62 241C58.6863 241 56 244.134 56 248Z" fill="black"/>
<path d="M44.5 246.115C44.5 247.772 43.1569 249.115 41.5 249.115C39.8431 249.115 38.5 247.772 38.5 246.115C38.5 244.458 39.8431 243.115 41.5 243.115C43.1569 243.115 44.5 244.458 44.5 246.115Z" fill="#D9D9D9"/>
<path d="M57.5 246.115C57.5 247.772 58.8431 249.115 60.5 249.115C62.1569 249.115 63.5 247.772 63.5 246.115C63.5 244.458 62.1569 243.115 60.5 243.115C58.8431 243.115 57.5 244.458 57.5 246.115Z" fill="#D9D9D9"/>
<path d="M64 249C64 249.552 64.4477 250 65 250C65.5523 250 66 249.552 66 249C66 248.448 65.5523 248 65 248C64.4477 248 64 248.448 64 249Z" fill="#D9D9D9"/>
<path d="M36 249C36 249.552 36.4477 250 37 250C37.5523 250 38 249.552 38 249C38 248.448 37.5523 248 37 248C36.4477 248 36 248.448 36 249Z" fill="#D9D9D9"/>
<circle cx="49.9471" cy="166.947" r="27.9471" fill="url(#paint1_linear_68_536)"/>
<path d="M36 183L39 179.5L43.5 183.5L49.5 179.5L54.5 183.5L60 179L63 183" stroke="black" stroke-width="4" stroke-linecap="round" stroke-linejoin="round"/>
<circle cx="39" cy="165" r="4" fill="black"/>
<circle cx="61" cy="165" r="4" fill="black"/>
</g>
<path d="M0.5 0.5H267.5V307C267.5 324.949 252.949 339.5 235 339.5H33C15.0507 339.5 0.5 324.949 0.5 307V0.5Z" stroke="#9E9C9C"/>
<defs>
<filter id="filter0_f_68_536" x="186.2" y="149.2" width="71.1" height="33.1" filterUnits="userSpaceOnUse" color-interpolation-filters="sRGB">
<feFlood flood-opacity="0" result="BackgroundImageFix"/>
<feBlend mode="normal" in="SourceGraphic" in2="BackgroundImageFix" result="shape"/>
<feGaussianBlur stdDeviation="2.9" result="effect1_foregroundBlur_68_536"/>
</filter>
<linearGradient id="paint0_linear_68_536" x1="134" y1="155" x2="133.947" y2="192.894" gradientUnits="userSpaceOnUse">
<stop stop-color="#E4C5C3"/>
<stop offset="1" stop-color="#CF9697"/>
</linearGradient>
<linearGradient id="paint1_linear_68_536" x1="49.9471" y1="139" x2="50" y2="174" gradientUnits="userSpaceOnUse">
<stop stop-color="#3F4D6E"/>
<stop offset="1" stop-color="#8BA3C7"/>
</linearGradient>
</defs>
</svg>
