<svg width="268" height="340" viewBox="0 0 268 340" fill="none" xmlns="http://www.w3.org/2000/svg">
<path d="M0.5 339.5H267.5V33C267.5 15.0508 252.949 0.5 235 0.5H33C15.0507 0.5 0.5 15.0508 0.5 33V339.5Z" fill="#FCF2E1" stroke="#9E9C9C"/>
<mask id="mask0_68_831" style="mask-type:alpha" maskUnits="userSpaceOnUse" x="0" y="0" width="268" height="340">
<path d="M0.5 339.5H267.5V33C267.5 15.0508 252.949 0.5 235 0.5H33C15.0507 0.5 0.5 15.0508 0.5 33V339.5Z" fill="#FCF2E1" stroke="#9E9C9C"/>
</mask>
<g mask="url(#mask0_68_831)">
<circle cx="212.947" cy="164.947" r="27.9471" fill="#AEC291"/>
<path d="M212.623 183.145C204.175 183.145 204.5 169.496 204.5 169.496L221.396 169.496C221.396 169.496 221.071 183.145 212.623 183.145Z" fill="black" stroke="black" stroke-width="5" stroke-linecap="round"/>
<path d="M196.374 157.473C196.374 157.473 196.988 150.648 202.873 150.648C208.073 150.649 208.073 157.473 208.073 157.473" stroke="black" stroke-width="5" stroke-linecap="round"/>
<path d="M217.497 157.473C217.497 157.473 218.111 150.648 223.996 150.648C229.196 150.649 229.196 157.473 229.196 157.473" stroke="black" stroke-width="5" stroke-linecap="round"/>
<rect width="406" height="145" transform="matrix(1 0 0 -1 -50 379)" fill="#F7B9BC"/>
<path d="M47.006 279H43.226V265.014H27.854V279H24.074V249.012H27.854V261.696H43.226V249.012H47.006V279ZM74.2729 267.702C74.2729 269.578 74.0209 271.244 73.5169 272.7C73.0409 274.128 72.3409 275.346 71.4169 276.354C70.5209 277.362 69.4149 278.132 68.0989 278.664C66.8109 279.168 65.3689 279.42 63.7729 279.42C62.2889 279.42 60.9169 279.168 59.6569 278.664C58.3969 278.132 57.3049 277.362 56.3809 276.354C55.4569 275.346 54.7289 274.128 54.1969 272.7C53.6929 271.244 53.4409 269.578 53.4409 267.702C53.4409 265.21 53.8609 263.11 54.7009 261.402C55.5409 259.666 56.7449 258.35 58.3129 257.454C59.8809 256.53 61.7429 256.068 63.8989 256.068C65.9429 256.068 67.7349 256.53 69.2749 257.454C70.8429 258.35 72.0609 259.666 72.9289 261.402C73.8249 263.11 74.2729 265.21 74.2729 267.702ZM57.2629 267.702C57.2629 269.466 57.4869 271.006 57.9349 272.322C58.4109 273.61 59.1389 274.604 60.1189 275.304C61.0989 276.004 62.3449 276.354 63.8569 276.354C65.3689 276.354 66.6149 276.004 67.5949 275.304C68.5749 274.604 69.2889 273.61 69.7369 272.322C70.2129 271.006 70.4509 269.466 70.4509 267.702C70.4509 265.91 70.2129 264.384 69.7369 263.124C69.2609 261.864 68.5329 260.898 67.5529 260.226C66.6009 259.526 65.3549 259.176 63.8149 259.176C61.5189 259.176 59.8529 259.932 58.8169 261.444C57.7809 262.956 57.2629 265.042 57.2629 267.702ZM98.2325 262.158C98.2325 263.558 97.8125 264.65 96.9725 265.434C96.1325 266.218 95.0545 266.75 93.7385 267.03V267.198C95.1385 267.394 96.3565 267.898 97.3925 268.71C98.4285 269.494 98.9465 270.726 98.9465 272.406C98.9465 273.358 98.7645 274.24 98.4005 275.052C98.0645 275.864 97.5325 276.564 96.8045 277.152C96.0765 277.74 95.1385 278.202 93.9905 278.538C92.8425 278.846 91.4565 279 89.8325 279H80.1305V256.488H89.7905C91.3865 256.488 92.8145 256.67 94.0745 257.034C95.3625 257.37 96.3705 257.958 97.0985 258.798C97.8545 259.61 98.2325 260.73 98.2325 262.158ZM95.1245 272.406C95.1245 271.118 94.6345 270.194 93.6545 269.634C92.6745 269.074 91.2325 268.794 89.3285 268.794H83.8265V276.018H89.4125C91.2605 276.018 92.6745 275.752 93.6545 275.22C94.6345 274.66 95.1245 273.722 95.1245 272.406ZM94.4945 262.62C94.4945 261.556 94.1025 260.786 93.3185 260.31C92.5625 259.806 91.3165 259.554 89.5805 259.554H83.8265V265.728H88.9085C90.7285 265.728 92.1145 265.476 93.0665 264.972C94.0185 264.468 94.4945 263.684 94.4945 262.62ZM112.856 256.11C115.6 256.11 117.63 256.712 118.946 257.916C120.262 259.12 120.92 261.038 120.92 263.67V279H118.232L117.518 275.808H117.35C116.706 276.62 116.034 277.306 115.334 277.866C114.662 278.398 113.878 278.79 112.982 279.042C112.114 279.294 111.05 279.42 109.79 279.42C108.446 279.42 107.228 279.182 106.136 278.706C105.072 278.23 104.232 277.502 103.616 276.522C103 275.514 102.692 274.254 102.692 272.742C102.692 270.502 103.574 268.78 105.338 267.576C107.102 266.344 109.818 265.672 113.486 265.56L117.308 265.434V264.09C117.308 262.214 116.902 260.912 116.09 260.184C115.278 259.456 114.13 259.092 112.646 259.092C111.47 259.092 110.35 259.274 109.286 259.638C108.222 259.974 107.228 260.366 106.304 260.814L105.17 258.042C106.15 257.51 107.312 257.062 108.656 256.698C110 256.306 111.4 256.11 112.856 256.11ZM113.948 268.122C111.148 268.234 109.202 268.682 108.11 269.466C107.046 270.25 106.514 271.356 106.514 272.784C106.514 274.044 106.892 274.968 107.648 275.556C108.432 276.144 109.426 276.438 110.63 276.438C112.534 276.438 114.116 275.92 115.376 274.884C116.636 273.82 117.266 272.196 117.266 270.012V267.996L113.948 268.122ZM129.259 279H124.975L131.401 269.55C130.533 269.326 129.693 268.976 128.881 268.5C128.069 267.996 127.411 267.31 126.907 266.442C126.403 265.546 126.151 264.44 126.151 263.124C126.151 260.968 126.879 259.33 128.335 258.21C129.791 257.062 131.723 256.488 134.131 256.488H144.211V279H140.515V270.054H135.055L129.259 279ZM129.721 263.166C129.721 264.454 130.197 265.42 131.149 266.064C132.129 266.68 133.487 266.988 135.223 266.988H140.515V259.554H134.509C132.801 259.554 131.569 259.89 130.813 260.562C130.085 261.234 129.721 262.102 129.721 263.166ZM41.798 298.026C41.798 300.07 41.154 301.694 39.866 302.898C38.578 304.074 36.856 304.83 34.7 305.166V305.334C37.22 305.67 39.138 306.454 40.454 307.686C41.77 308.918 42.428 310.528 42.428 312.516C42.428 314.28 41.98 315.834 41.084 317.178C40.188 318.494 38.844 319.53 37.052 320.286C35.26 321.042 33.02 321.42 30.332 321.42C28.708 321.42 27.154 321.294 25.67 321.042C24.214 320.818 22.856 320.398 21.596 319.782V316.338C22.464 316.758 23.388 317.122 24.368 317.43C25.376 317.71 26.384 317.934 27.392 318.102C28.4 318.242 29.366 318.312 30.29 318.312C32.978 318.312 35.008 317.808 36.38 316.8C37.78 315.792 38.48 314.364 38.48 312.516C38.48 310.612 37.668 309.226 36.044 308.358C34.42 307.49 32.152 307.056 29.24 307.056H24.956V303.906H29.03C31.018 303.906 32.656 303.682 33.944 303.234C35.26 302.786 36.24 302.156 36.884 301.344C37.556 300.504 37.892 299.524 37.892 298.404C37.892 296.892 37.332 295.73 36.212 294.918C35.092 294.106 33.636 293.7 31.844 293.7C29.968 293.7 28.4 293.938 27.14 294.414C25.908 294.89 24.704 295.506 23.528 296.262L21.722 293.7C22.506 293.112 23.402 292.594 24.41 292.146C25.446 291.67 26.594 291.292 27.854 291.012C29.114 290.732 30.458 290.592 31.886 290.592C34.042 290.592 35.848 290.914 37.304 291.558C38.788 292.202 39.908 293.084 40.664 294.204C41.42 295.296 41.798 296.57 41.798 298.026ZM56.7874 298.11C59.5314 298.11 61.5614 298.712 62.8774 299.916C64.1934 301.12 64.8514 303.038 64.8514 305.67V321H62.1634L61.4494 317.808H61.2814C60.6374 318.62 59.9654 319.306 59.2654 319.866C58.5934 320.398 57.8094 320.79 56.9134 321.042C56.0454 321.294 54.9814 321.42 53.7214 321.42C52.3774 321.42 51.1594 321.182 50.0674 320.706C49.0034 320.23 48.1634 319.502 47.5474 318.522C46.9314 317.514 46.6234 316.254 46.6234 314.742C46.6234 312.502 47.5054 310.78 49.2694 309.576C51.0334 308.344 53.7494 307.672 57.4174 307.56L61.2394 307.434V306.09C61.2394 304.214 60.8334 302.912 60.0214 302.184C59.2094 301.456 58.0614 301.092 56.5774 301.092C55.4014 301.092 54.2814 301.274 53.2174 301.638C52.1534 301.974 51.1594 302.366 50.2354 302.814L49.1014 300.042C50.0814 299.51 51.2434 299.062 52.5874 298.698C53.9314 298.306 55.3314 298.11 56.7874 298.11ZM57.8794 310.122C55.0794 310.234 53.1334 310.682 52.0414 311.466C50.9774 312.25 50.4454 313.356 50.4454 314.784C50.4454 316.044 50.8234 316.968 51.5794 317.556C52.3634 318.144 53.3574 318.438 54.5614 318.438C56.4654 318.438 58.0474 317.92 59.3074 316.884C60.5674 315.82 61.1974 314.196 61.1974 312.012V309.996L57.8794 310.122ZM90.8304 298.488V321H87.1344V301.638H75.5004V321H71.8044V298.488H90.8304ZM101.499 312.222C101.499 312.474 101.485 312.838 101.457 313.314C101.457 313.762 101.443 314.252 101.415 314.784C101.387 315.288 101.359 315.778 101.331 316.254C101.303 316.702 101.275 317.066 101.247 317.346L113.301 298.488H117.837V321H114.393V307.728C114.393 307.28 114.393 306.692 114.393 305.964C114.421 305.236 114.449 304.522 114.477 303.822C114.505 303.094 114.533 302.548 114.561 302.184L102.591 321H98.0134V298.488H101.499V312.222ZM134.032 321.42C132.044 321.42 130.266 321.014 128.698 320.202C127.158 319.39 125.94 318.13 125.044 316.422C124.176 314.714 123.742 312.53 123.742 309.87C123.742 307.098 124.204 304.844 125.128 303.108C126.052 301.372 127.298 300.098 128.866 299.286C130.462 298.474 132.268 298.068 134.284 298.068C135.432 298.068 136.538 298.194 137.602 298.446C138.666 298.67 139.534 298.95 140.206 299.286L139.072 302.352C138.4 302.1 137.616 301.862 136.72 301.638C135.824 301.414 134.984 301.302 134.2 301.302C132.688 301.302 131.442 301.624 130.462 302.268C129.482 302.912 128.754 303.864 128.278 305.124C127.802 306.384 127.564 307.952 127.564 309.828C127.564 311.62 127.802 313.146 128.278 314.406C128.754 315.666 129.468 316.618 130.42 317.262C131.372 317.906 132.562 318.228 133.99 318.228C135.222 318.228 136.3 318.102 137.224 317.85C138.176 317.598 139.044 317.29 139.828 316.926V320.202C139.072 320.594 138.232 320.888 137.308 321.084C136.412 321.308 135.32 321.42 134.032 321.42ZM155.555 307.728C157.515 307.728 159.139 307.966 160.427 308.442C161.715 308.918 162.681 309.632 163.325 310.584C163.997 311.508 164.333 312.684 164.333 314.112C164.333 315.512 164.011 316.73 163.367 317.766C162.751 318.802 161.785 319.6 160.469 320.16C159.153 320.72 157.459 321 155.387 321H145.181V298.488H148.877V307.728H155.555ZM160.637 314.322C160.637 312.95 160.147 312.026 159.167 311.55C158.215 311.046 156.871 310.794 155.135 310.794H148.877V318.018H155.219C156.787 318.018 158.075 317.738 159.083 317.178C160.119 316.618 160.637 315.666 160.637 314.322Z" fill="black"/>
<circle cx="217.947" cy="68.9471" r="27.9471" fill="#EDB39B"/>
<mask id="mask1_68_831" style="mask-type:alpha" maskUnits="userSpaceOnUse" x="190" y="41" width="56" height="56">
<circle cx="217.947" cy="68.9471" r="27.9471" fill="#EDB39B"/>
</mask>
<g mask="url(#mask1_68_831)">
<g filter="url(#filter0_f_68_831)">
<path d="M217.5 71.5L193 81L188.5 82.5L188 62L247.5 61L246 81L217.5 71.5Z" fill="#E38863"/>
</g>
</g>
<path d="M209 82.543C209 82.543 213.393 72.2493 219 73.0437C223.989 73.7507 226.5 82.543 226.5 82.543" stroke="black" stroke-width="4" stroke-linecap="round" stroke-linejoin="round"/>
<path d="M197 61.5L211.5 59L200.5 65.5" stroke="black" stroke-width="4" stroke-linecap="round" stroke-linejoin="round"/>
<path d="M238.5 61.5L224 59L235 65.5" stroke="black" stroke-width="4" stroke-linecap="round" stroke-linejoin="round"/>
<circle cx="129.947" cy="70.9471" r="27.9471" fill="url(#paint0_linear_68_831)"/>
<path d="M122 85C122 85 126.727 85 130 85C133.273 85 138 85 138 85" stroke="black" stroke-width="3" stroke-linecap="round" stroke-linejoin="round"/>
<path d="M111 62C111 62 115.727 62 119 62C122.273 62 127 59.5 127 59.5" stroke="black" stroke-width="3" stroke-linecap="round" stroke-linejoin="round"/>
<path d="M133 59.5C133 59.5 137.727 62 141 62C144.273 62 149 62 149 62" stroke="black" stroke-width="3" stroke-linecap="round" stroke-linejoin="round"/>
<path d="M125 64.8235C125 67.6824 122.538 70 119.5 70C116.462 70 114 67.6824 114 64.8235C114 61.9647 116.462 62 119.5 62C122.538 62 125 61.9647 125 64.8235Z" stroke="black" stroke-width="3"/>
<path d="M146 64.8235C146 67.6824 143.538 70 140.5 70C137.462 70 135 67.6824 135 64.8235C135 61.9647 137.462 62 140.5 62C143.538 62 146 61.9647 146 64.8235Z" stroke="black" stroke-width="3"/>
<circle cx="129.947" cy="163.947" r="27.9471" fill="#C7D8A9"/>
<ellipse cx="119.575" cy="157.874" rx="3.57463" ry="4.87449" fill="black"/>
<ellipse cx="140.372" cy="157.874" rx="3.57463" ry="4.87449" fill="black"/>
<path d="M122.002 171C122.002 171 121.677 178.149 130.125 178.149C138.573 178.149 138.898 171 138.898 171" stroke="black" stroke-width="5" stroke-linecap="round"/>
<circle cx="46.9471" cy="161.947" r="27.9471" fill="#DA99AF"/>
<path d="M42 154C42 157.009 41.0879 159.057 41.0879 159.057C41.0879 159.057 37.375 157.982 34.9257 157.79C33.3797 157.668 30.9546 157.79 30.9546 157.79C30.3505 156.698 30 155.397 30 154C30 150.134 32.6863 147 36 147C39.3137 147 42 150.134 42 154Z" fill="black"/>
<path d="M55 167H38C38 167 38.4857 177 46.7429 177C54.031 177 55 167 55 167Z" fill="black" stroke="black" stroke-width="2" stroke-linecap="round"/>
<path d="M52 154C52 157.009 52.9121 159.057 52.9121 159.057C52.9121 159.057 56.625 157.982 59.0743 157.79C60.6203 157.668 63.0454 157.79 63.0454 157.79C63.6495 156.698 64 155.397 64 154C64 150.134 61.3137 147 58 147C54.6863 147 52 150.134 52 154Z" fill="black"/>
<path d="M40.5 152.115C40.5 153.772 39.1569 155.115 37.5 155.115C35.8431 155.115 34.5 153.772 34.5 152.115C34.5 150.458 35.8431 149.115 37.5 149.115C39.1569 149.115 40.5 150.458 40.5 152.115Z" fill="#D9D9D9"/>
<path d="M53.5 152.115C53.5 153.772 54.8431 155.115 56.5 155.115C58.1569 155.115 59.5 153.772 59.5 152.115C59.5 150.458 58.1569 149.115 56.5 149.115C54.8431 149.115 53.5 150.458 53.5 152.115Z" fill="#D9D9D9"/>
<path d="M60 155C60 155.552 60.4477 156 61 156C61.5523 156 62 155.552 62 155C62 154.448 61.5523 154 61 154C60.4477 154 60 154.448 60 155Z" fill="#D9D9D9"/>
<path d="M32 155C32 155.552 32.4477 156 33 156C33.5523 156 34 155.552 34 155C34 154.448 33.5523 154 33 154C32.4477 154 32 154.448 32 155Z" fill="#D9D9D9"/>
<circle cx="45.9471" cy="72.9471" r="27.9471" fill="url(#paint1_linear_68_831)"/>
<path d="M32 89L35 85.5L39.5 89.5L45.5 85.5L50.5 89.5L56 85L59 89" stroke="black" stroke-width="4" stroke-linecap="round" stroke-linejoin="round"/>
<circle cx="35" cy="71" r="4" fill="black"/>
<circle cx="57" cy="71" r="4" fill="black"/>
</g>
<path d="M0.5 339.5H267.5V33C267.5 15.0508 252.949 0.5 235 0.5H33C15.0507 0.5 0.5 15.0508 0.5 33V339.5Z" stroke="#9E9C9C"/>
<defs>
<filter id="filter0_f_68_831" x="182.2" y="55.2" width="71.1" height="33.1" filterUnits="userSpaceOnUse" color-interpolation-filters="sRGB">
<feFlood flood-opacity="0" result="BackgroundImageFix"/>
<feBlend mode="normal" in="SourceGraphic" in2="BackgroundImageFix" result="shape"/>
<feGaussianBlur stdDeviation="2.9" result="effect1_foregroundBlur_68_831"/>
</filter>
<linearGradient id="paint0_linear_68_831" x1="130" y1="61" x2="129.947" y2="98.8942" gradientUnits="userSpaceOnUse">
<stop stop-color="#E4C5C3"/>
<stop offset="1" stop-color="#CF9697"/>
</linearGradient>
<linearGradient id="paint1_linear_68_831" x1="45.9471" y1="45" x2="46" y2="80" gradientUnits="userSpaceOnUse">
<stop stop-color="#3F4D6E"/>
<stop offset="1" stop-color="#8BA3C7"/>
</linearGradient>
</defs>
</svg>
