<svg width="268" height="340" viewBox="0 0 268 340" fill="none" xmlns="http://www.w3.org/2000/svg">
<path d="M0 31C0 13.8792 13.8792 0 31 0H237C254.121 0 268 13.8792 268 31V340H0V31Z" fill="#FDFAE7"/>
<mask id="mask0_41_13" style="mask-type:alpha" maskUnits="userSpaceOnUse" x="0" y="0" width="268" height="340">
<path d="M0 31C0 13.8792 13.8792 0 31 0H237C254.121 0 268 13.8792 268 31V340H0V31Z" fill="#FDFAE7"/>
</mask>
<g mask="url(#mask0_41_13)">
<path d="M13.5 340.714L120 234.285L194 333.571L291.5 224.285" stroke="#F6BCD4" stroke-width="6"/>
<circle cx="197" cy="328" r="12" fill="#F6BCD4"/>
<circle cx="119" cy="234" r="12" fill="#F6BCD4"/>
<circle cx="272" cy="249" r="12" fill="#F6BCD4"/>
<path d="M-14 148.57H291" stroke="#F9E3D6" stroke-width="5"/>
<path d="M-18 57.1445H287" stroke="#F9E3D6" stroke-width="5"/>
<path d="M72 208.572L72 -227.142" stroke="url(#paint0_linear_41_13)" stroke-width="5"/>
<path d="M197 211.43L197 -224.285" stroke="url(#paint1_linear_41_13)" stroke-width="5"/>
<circle cx="14" cy="338" r="12" fill="#F6BCD4"/>
<path d="M-9 298.571L49.5 235.714L87.5 324.286L122.5 282.143L151 324.286L269 190" stroke="#5271FF" stroke-width="6"/>
<circle cx="48" cy="241" r="12" fill="#5271FF"/>
<circle cx="122.5" cy="284.5" r="12.5" fill="#5271FF"/>
<circle cx="88" cy="323.428" r="12" fill="#5271FF"/>
<circle cx="151" cy="322" r="12" fill="#5271FF"/>
<path d="M7 289C7 295.627 1.62742 301 -5 301C-11.6274 301 -17 295.627 -17 289C-17 282.373 -11.6274 277 -5 277C1.62742 277 7 282.373 7 289Z" fill="#5271FF"/>
<circle cx="271" cy="191" r="12" fill="#5271FF"/>
<path d="M35.926 90.91C34.33 90.91 32.888 91.19 31.6 91.75C30.312 92.282 29.22 93.08 28.324 94.144C27.428 95.18 26.742 96.454 26.266 97.966C25.79 99.45 25.552 101.13 25.552 103.006C25.552 105.47 25.93 107.612 26.686 109.432C27.47 111.252 28.618 112.652 30.13 113.632C31.67 114.612 33.588 115.102 35.884 115.102C37.2 115.102 38.446 114.99 39.622 114.766C40.798 114.542 41.946 114.262 43.066 113.926V117.202C41.946 117.622 40.784 117.93 39.58 118.126C38.404 118.322 36.99 118.42 35.338 118.42C32.286 118.42 29.738 117.79 27.694 116.53C25.65 115.27 24.11 113.478 23.074 111.154C22.066 108.83 21.562 106.1 21.562 102.964C21.562 100.696 21.87 98.624 22.486 96.748C23.13 94.872 24.054 93.248 25.258 91.876C26.49 90.504 28.002 89.454 29.794 88.726C31.586 87.97 33.644 87.592 35.968 87.592C37.508 87.592 38.992 87.746 40.42 88.054C41.848 88.362 43.122 88.796 44.242 89.356L42.73 92.548C41.806 92.128 40.77 91.75 39.622 91.414C38.502 91.078 37.27 90.91 35.926 90.91ZM64.6471 98.596H57.2971V118H53.6431V98.596H46.3771V95.488H64.6471V98.596ZM77.6077 95.11C80.3517 95.11 82.3817 95.712 83.6977 96.916C85.0137 98.12 85.6717 100.038 85.6717 102.67V118H82.9837L82.2697 114.808H82.1017C81.4577 115.62 80.7857 116.306 80.0857 116.866C79.4137 117.398 78.6297 117.79 77.7337 118.042C76.8657 118.294 75.8017 118.42 74.5417 118.42C73.1977 118.42 71.9797 118.182 70.8877 117.706C69.8237 117.23 68.9837 116.502 68.3677 115.522C67.7517 114.514 67.4437 113.254 67.4437 111.742C67.4437 109.502 68.3257 107.78 70.0897 106.576C71.8537 105.344 74.5697 104.672 78.2377 104.56L82.0597 104.434V103.09C82.0597 101.214 81.6537 99.912 80.8417 99.184C80.0297 98.456 78.8817 98.092 77.3977 98.092C76.2217 98.092 75.1017 98.274 74.0377 98.638C72.9737 98.974 71.9797 99.366 71.0557 99.814L69.9217 97.042C70.9017 96.51 72.0637 96.062 73.4077 95.698C74.7517 95.306 76.1517 95.11 77.6077 95.11ZM78.6997 107.122C75.8997 107.234 73.9537 107.682 72.8617 108.466C71.7977 109.25 71.2657 110.356 71.2657 111.784C71.2657 113.044 71.6437 113.968 72.3997 114.556C73.1837 115.144 74.1777 115.438 75.3817 115.438C77.2857 115.438 78.8677 114.92 80.1277 113.884C81.3877 112.82 82.0177 111.196 82.0177 109.012V106.996L78.6997 107.122ZM108.165 98.596H100.815V118H97.1607V98.596H89.8947V95.488H108.165V98.596ZM116.085 109.222C116.085 109.474 116.071 109.838 116.043 110.314C116.043 110.762 116.029 111.252 116.001 111.784C115.973 112.288 115.945 112.778 115.917 113.254C115.889 113.702 115.861 114.066 115.833 114.346L127.887 95.488H132.423V118H128.979V104.728C128.979 104.28 128.979 103.692 128.979 102.964C129.007 102.236 129.035 101.522 129.063 100.822C129.091 100.094 129.119 99.548 129.147 99.184L117.177 118H112.599V95.488H116.085V109.222ZM148.618 118.42C146.63 118.42 144.852 118.014 143.284 117.202C141.744 116.39 140.526 115.13 139.63 113.422C138.762 111.714 138.328 109.53 138.328 106.87C138.328 104.098 138.79 101.844 139.714 100.108C140.638 98.372 141.884 97.098 143.452 96.286C145.048 95.474 146.854 95.068 148.87 95.068C150.018 95.068 151.124 95.194 152.188 95.446C153.252 95.67 154.12 95.95 154.792 96.286L153.658 99.352C152.986 99.1 152.202 98.862 151.306 98.638C150.41 98.414 149.57 98.302 148.786 98.302C147.274 98.302 146.028 98.624 145.048 99.268C144.068 99.912 143.34 100.864 142.864 102.124C142.388 103.384 142.15 104.952 142.15 106.828C142.15 108.62 142.388 110.146 142.864 111.406C143.34 112.666 144.054 113.618 145.006 114.262C145.958 114.906 147.148 115.228 148.576 115.228C149.808 115.228 150.886 115.102 151.81 114.85C152.762 114.598 153.63 114.29 154.414 113.926V117.202C153.658 117.594 152.818 117.888 151.894 118.084C150.998 118.308 149.906 118.42 148.618 118.42ZM175.307 98.596H167.957V118H164.303V98.596H157.037V95.488H175.307V98.596ZM183.228 109.222C183.228 109.474 183.214 109.838 183.186 110.314C183.186 110.762 183.172 111.252 183.144 111.784C183.116 112.288 183.088 112.778 183.06 113.254C183.032 113.702 183.004 114.066 182.976 114.346L195.03 95.488H199.566V118H196.122V104.728C196.122 104.28 196.122 103.692 196.122 102.964C196.15 102.236 196.178 101.522 196.206 100.822C196.234 100.094 196.262 99.548 196.29 99.184L184.32 118H179.742V95.488H183.228V109.222ZM220.044 95.488H224.076L214.458 106.324L224.874 118H220.59L210.426 106.576V118H206.73V95.488H210.426V106.408L220.044 95.488ZM237.487 95.11C240.231 95.11 242.261 95.712 243.577 96.916C244.893 98.12 245.551 100.038 245.551 102.67V118H242.863L242.149 114.808H241.981C241.337 115.62 240.665 116.306 239.965 116.866C239.293 117.398 238.509 117.79 237.613 118.042C236.745 118.294 235.681 118.42 234.421 118.42C233.077 118.42 231.859 118.182 230.767 117.706C229.703 117.23 228.863 116.502 228.247 115.522C227.631 114.514 227.323 113.254 227.323 111.742C227.323 109.502 228.205 107.78 229.969 106.576C231.733 105.344 234.449 104.672 238.117 104.56L241.939 104.434V103.09C241.939 101.214 241.533 99.912 240.721 99.184C239.909 98.456 238.761 98.092 237.277 98.092C236.101 98.092 234.981 98.274 233.917 98.638C232.853 98.974 231.859 99.366 230.935 99.814L229.801 97.042C230.781 96.51 231.943 96.062 233.287 95.698C234.631 95.306 236.031 95.11 237.487 95.11ZM238.579 107.122C235.779 107.234 233.833 107.682 232.741 108.466C231.677 109.25 231.145 110.356 231.145 111.784C231.145 113.044 231.523 113.968 232.279 114.556C233.063 115.144 234.057 115.438 235.261 115.438C237.165 115.438 238.747 114.92 240.007 113.884C241.267 112.82 241.897 111.196 241.897 109.012V106.996L238.579 107.122Z" fill="black"/>
</g>
<path d="M0.5 31C0.5 14.1553 14.1553 0.5 31 0.5H237C253.845 0.5 267.5 14.1553 267.5 31V339.5H0.5V31Z" stroke="#9E9C9C"/>
<defs>
<linearGradient id="paint0_linear_41_13" x1="72.5" y1="-227.142" x2="72.5" y2="208.572" gradientUnits="userSpaceOnUse">
<stop offset="0.845" stop-color="#F9E3D6"/>
<stop offset="1" stop-color="#FDFAE7"/>
</linearGradient>
<linearGradient id="paint1_linear_41_13" x1="197.5" y1="-224.285" x2="197.5" y2="211.43" gradientUnits="userSpaceOnUse">
<stop offset="0.845" stop-color="#F9E3D6"/>
<stop offset="1" stop-color="#FDFAE7"/>
</linearGradient>
</defs>
</svg>
