<svg width="67.892578" height="67.892578" viewBox="0 0 67.8926 67.8926" fill="none" xmlns="http://www.w3.org/2000/svg" xmlns:xlink="http://www.w3.org/1999/xlink">
	<desc>
			Created with Pixso.
	</desc>
	<defs/>
	<circle id="Ellipse 50" cx="33.946289" cy="33.947266" r="33.946449" fill="#AEC291" fill-opacity="1.000000"/>
	<path id="Vector 156" d="M33.55 56.04C23.29 56.04 23.68 39.47 23.68 39.47L44.2 39.47C44.2 39.47 43.81 56.04 33.55 56.04Z" fill="#000000" fill-opacity="1.000000" fill-rule="nonzero"/>
	<path id="Vector 156" d="M33.55 56.04C43.81 56.04 44.2 39.47 44.2 39.47L23.68 39.47C23.68 39.47 23.29 56.04 33.55 56.04Z" stroke="#000000" stroke-opacity="1.000000" stroke-width="5.000000"/>
	<path id="Vector 157" d="M13.81 24.86C13.81 24.86 14.56 16.57 21.71 16.57C28.02 16.57 28.02 24.86 28.02 24.86" stroke="#000000" stroke-opacity="1.000000" stroke-width="5.000000" stroke-linecap="round"/>
	<path id="Vector 158" d="M39.47 24.86C39.47 24.86 40.21 16.57 47.36 16.57C53.68 16.57 53.68 24.86 53.68 24.86" stroke="#000000" stroke-opacity="1.000000" stroke-width="5.000000" stroke-linecap="round"/>
</svg>
