<svg width="268" height="340" viewBox="0 0 268 340" fill="none" xmlns="http://www.w3.org/2000/svg">
<mask id="mask0_67_204" style="mask-type:alpha" maskUnits="userSpaceOnUse" x="0" y="0" width="268" height="340">
<path d="M0.5 0.5H267.5V307C267.5 324.949 252.949 339.5 235 339.5H33C15.0507 339.5 0.5 324.949 0.5 307V0.5Z" fill="#FCF2E1" stroke="#9E9C9C"/>
</mask>
<g mask="url(#mask0_67_204)">
<path d="M71.8097 198.982C71.8097 198.982 51.7256 192.342 39.3411 193.381C17.5185 195.212 7.79931 206.834 -13.2651 212.817C-33.719 218.626 -66.6045 223.73 -66.6045 223.73L-31.3411 396.082C-31.3411 396.082 1.82969 391.908 21.9983 385.168C43.1657 378.095 59.7522 364.748 73.6299 363.438C86.7225 362.202 112.48 360.672 112.48 360.672L71.8097 198.982Z" fill="#CEC1AC"/>
<path d="M85.3975 196.202C85.3975 196.202 101.26 182.207 113.057 178.298C133.845 171.411 147.348 178.281 169.069 175.51C190.161 172.819 222.409 164.597 222.409 164.597L257.672 336.948C257.672 336.948 225.528 346.138 204.333 347.862C182.088 349.671 161.593 343.911 148.316 348.157C135.79 352.163 111.991 360.771 111.991 360.771L85.3975 196.202Z" fill="#CEC1AC"/>
<path d="M75.6427 193.099C75.6427 193.099 55.3742 186.492 42.8662 187.556C20.8259 189.43 10.9892 201.08 -10.2934 207.109C-30.9592 212.962 -64.1771 218.133 -64.1771 218.133L-28.898 390.561C-28.898 390.561 4.60622 386.32 24.9857 379.537C46.3743 372.417 63.1492 359.027 77.1655 357.689C90.389 356.427 111.79 359.792 111.79 359.792L75.6427 193.099Z" fill="#DCD1BF"/>
<path d="M79.5615 192.298C79.5615 192.298 95.6061 178.261 107.527 174.326C128.532 167.393 142.154 174.244 164.094 171.429C185.398 168.695 217.978 160.404 217.978 160.404L253.257 332.832C253.257 332.832 220.779 342.091 199.373 343.857C176.907 345.71 156.221 339.984 142.806 344.259C130.149 348.292 111.79 359.792 111.79 359.792L79.5615 192.298Z" fill="#DCD1BF"/>
<path d="M77.0004 189.754C77.0004 189.754 57.1164 183.073 44.8667 184.084C23.2813 185.867 13.6915 197.462 -7.13462 203.396C-27.3572 209.158 -59.88 214.188 -59.88 214.188L-24.6165 386.539C-24.6165 386.539 8.19051 382.44 28.1288 375.747C49.0544 368.724 65.6024 353.799 79.3288 352.52C92.2788 351.313 111.562 358.677 111.562 358.677L77.0004 189.754Z" fill="url(#paint0_linear_67_204)"/>
<path d="M77.0004 189.754C77.0004 189.754 92.7902 175.774 104.539 171.875C125.241 165.005 138.697 171.885 160.333 169.132C181.341 166.458 213.457 158.262 213.457 158.262L248.721 330.614C248.721 330.614 216.708 339.777 195.596 341.483C173.439 343.274 152.223 336.076 139.001 340.31C126.527 344.306 111.562 358.677 111.562 358.677L77.0004 189.754Z" fill="url(#paint1_linear_67_204)"/>
<path d="M184.694 237.189L212.515 230.986" stroke="black"/>
<path d="M193.313 279.316L221.134 273.113" stroke="black"/>
<path d="M126.457 239.408C126.457 239.408 140.181 237.216 149.001 237.347C157.709 237.477 162.338 241.082 170.978 239.996C175.052 239.484 181.265 237.891 181.265 237.891" stroke="black"/>
<path d="M40.5078 205.957C40.5078 205.957 27.0258 209.332 18.9656 212.916C11.0087 216.455 8.16754 221.589 -0.205048 223.984C-4.15192 225.113 -10.4919 226.088 -10.4919 226.088" stroke="black"/>
<path d="M134.586 281.637C134.586 281.637 148.31 279.445 157.13 279.576C165.838 279.705 170.467 283.31 179.107 282.224C183.18 281.712 189.394 280.12 189.394 280.12" stroke="black"/>
<path d="M69.3164 334.291C69.3164 334.291 55.8344 337.666 47.7742 341.25C39.8173 344.789 36.9761 349.923 28.6035 352.318C24.6567 353.447 18.3167 354.422 18.3167 354.422" stroke="black"/>
<path d="M99.8498 254.037C99.8498 254.037 104.921 249.04 108.934 246.055C113.236 242.855 121.559 240.41 121.559 240.41" stroke="black"/>
<path d="M70.7228 208.961C70.7228 208.961 64.0961 206.357 59.2334 205.188C54.0201 203.936 45.406 204.955 45.406 204.955" stroke="black"/>
<path d="M108.369 295.675C108.369 295.675 115.01 290.866 119.023 287.881C123.325 284.682 131.647 282.236 131.647 282.236" stroke="black"/>
<path d="M98.9421 336.906C98.9421 336.906 90.9459 335.091 86.0832 333.923C80.8699 332.67 72.2558 333.69 72.2558 333.69" stroke="black"/>
<path d="M-31.5203 282.958L-31.5479 282.459L-32.1262 282.491L-32.0101 283.059L-23.3908 325.186L-23.3032 325.614L-22.8671 325.584L-22.901 325.086C-22.8671 325.584 -22.8669 325.584 -22.8665 325.584L-22.8648 325.584L-22.8583 325.584L-22.8327 325.582L-22.7323 325.575C-22.6436 325.569 -22.5119 325.559 -22.3391 325.546C-21.9936 325.52 -21.484 325.481 -20.8265 325.427C-19.5116 325.318 -17.6051 325.15 -15.2367 324.913C-10.5003 324.437 -3.91543 323.682 3.47927 322.564C18.2552 320.33 36.3145 316.639 49.3119 310.809C52.7255 309.277 55.2745 307.523 57.6977 305.855C58.0901 305.585 58.4792 305.317 58.8681 305.053C61.66 303.156 64.4681 301.425 68.5169 300.255C72.5206 299.099 77.8798 298.756 82.2704 298.708C84.4592 298.683 86.395 298.732 87.7835 298.787C88.4776 298.815 89.0345 298.844 89.4175 298.866C89.6089 298.877 89.7568 298.886 89.8566 298.893L89.9696 298.901L89.9979 298.903L90.0049 298.903L90.0065 298.903L90.0069 298.903L90.0431 298.405L90.0069 298.903L90.6653 298.951L90.533 298.304L81.9137 256.177L81.834 255.787L81.4361 255.778L81.4239 256.278C81.4361 255.778 81.436 255.778 81.4358 255.778L81.4353 255.778L81.4332 255.778L81.4255 255.777L81.3955 255.777L81.2794 255.775C81.1776 255.773 81.0277 255.771 80.8344 255.769C80.4479 255.765 79.8875 255.762 79.1904 255.768C77.7966 255.779 75.8545 255.822 73.661 255.949C69.2868 256.202 63.8647 256.792 59.8004 258.154C55.6328 259.551 52.7037 261.034 49.8362 262.631C49.1726 263.001 48.514 263.375 47.8449 263.756C45.6219 265.02 43.2845 266.35 40.2742 267.773C27.4797 273.824 9.54032 277.5 -5.23785 279.661C-12.6196 280.74 -19.199 281.44 -23.9327 281.87C-26.2994 282.085 -28.2044 282.232 -29.5172 282.326C-30.1735 282.372 -30.6818 282.406 -31.0257 282.428C-31.1977 282.438 -31.3285 282.446 -31.4163 282.451L-31.5152 282.457L-31.54 282.459L-31.5461 282.459L-31.5475 282.459C-31.5478 282.459 -31.5479 282.459 -31.5203 282.958Z" fill="url(#paint2_linear_67_204)" stroke="#D8B6A7"/>
<path d="M170.43 182.438L204.719 175.422L213.94 220.488L179.65 227.504L170.43 182.438Z" fill="#D5E798"/>
<mask id="mask1_67_204" style="mask-type:alpha" maskUnits="userSpaceOnUse" x="170" y="175" width="44" height="53">
<path d="M170.43 182.438L204.719 175.422L213.94 220.488L179.65 227.504L170.43 182.438Z" fill="#D5E798"/>
</mask>
<g mask="url(#mask1_67_204)">
<path d="M183.57 226.702C183.57 226.702 182.381 219.514 183.224 215.034C183.492 213.608 184.059 211.959 184.67 210.442C185.725 207.826 186.908 205.604 186.908 205.604C186.908 205.604 190.767 206.381 193.087 205.871C195.219 205.402 198.275 203.789 198.275 203.789C198.275 203.789 200.044 205.152 201.931 206.911C203.14 208.038 204.396 209.327 205.267 210.524C207.97 214.241 210.022 221.289 210.022 221.289L183.57 226.702Z" fill="#FCE1A9"/>
<path d="M184.67 210.442C185.725 207.826 186.908 205.604 186.908 205.604C186.908 205.604 190.767 206.381 193.087 205.871C195.219 205.402 198.275 203.789 198.275 203.789C198.275 203.789 200.044 205.152 201.931 206.911M184.67 210.442C184.059 211.959 183.492 213.608 183.224 215.034C182.381 219.514 183.57 226.702 183.57 226.702L210.022 221.289C210.022 221.289 207.97 214.241 205.267 210.524C204.396 209.327 203.14 208.038 201.931 206.911M184.67 210.442C184.67 210.442 186.57 212.269 187.532 213.642C189.137 215.932 189.624 217.515 190.405 220.199C190.896 221.887 191.307 224.608 191.307 224.608M201.931 206.911C201.931 206.911 201.425 209.29 201.248 210.836C200.93 213.613 200.846 215.219 201.182 217.994C201.393 219.739 202.084 222.403 202.084 222.403" stroke="#FA6B33"/>
<path d="M187.988 205.895C190.309 206.216 191.282 206.242 193.577 205.772C195.108 205.459 196.421 204.65 197.785 203.89C199.599 202.88 201.003 199.659 201.003 199.659C201.003 199.659 198.227 196.526 197.84 194.182C197.447 191.799 198.597 187.903 198.597 187.903C198.597 187.903 193.817 191.88 190.381 192.646C186.765 193.452 180.963 191.511 180.963 191.511C180.963 191.511 182.966 194.768 183.635 197.089C184.286 199.348 182.878 203.368 182.878 203.368C182.878 203.368 185.783 205.59 187.988 205.895Z" fill="#FCE1A9" stroke="#FA6B33"/>
</g>
<path d="M171.02 182.827L204.33 176.012L213.35 220.099L180.04 226.914L171.02 182.827Z" stroke="#B5C973"/>
<path d="M87.9563 203.392C87.9563 203.392 102.017 189.8 115.243 187.092C126.849 184.716 141.87 188.216 152.417 189.185C158.952 189.785 164.474 188.249 164.474 188.249" stroke="black"/>
<path d="M89.0813 213.883C89.0813 213.883 103.142 200.29 116.368 197.582C128.166 195.166 144.376 197.893 154.911 198.883C161.16 199.47 165.498 198.248 165.498 198.248" stroke="black"/>
<path d="M95.4739 240.135C95.4739 240.135 109.535 226.542 122.76 223.834C134.559 221.418 150.769 224.145 161.303 225.135C167.553 225.722 171.891 224.5 171.891 224.5" stroke="black"/>
<path d="M91.9657 222.99C91.9657 222.99 96.1751 217.807 99.5803 215.307C103.17 212.673 109.756 210.163 109.756 210.163M115.433 207.981C115.433 207.981 120.582 205.889 124.05 205.197C130.323 203.947 140.427 205.419 140.427 205.419" stroke="black"/>
<path d="M143.956 205.207C143.956 205.207 152.874 207.549 158.674 207.299C160.829 207.206 164.163 206.687 164.163 206.687" stroke="black"/>
<path d="M143.11 213.545C143.11 213.545 153.274 215.891 159.788 215.236C163.091 214.904 168.115 213.532 168.115 213.532" stroke="black"/>
<path d="M93.2805 231.908C111.828 212.804 133.602 214.463 137.233 214.747" stroke="black"/>
<path d="M102.945 266.675C102.945 266.675 115.007 254.509 126.023 252.256C141.699 249.049 155.645 254.358 171.035 252.744C189.678 250.789 215.122 243.724 215.122 243.724" stroke="black"/>
<path d="M72.839 221.8C72.839 221.8 56.968 215.349 45.9521 217.604C30.277 220.811 19.5363 231.172 4.74958 235.731C-13.1632 241.255 -39.3371 244.752 -39.3371 244.752" stroke="black"/>
<path d="M110.618 316.652C110.618 316.652 126.109 303.784 137.125 301.531C152.801 298.324 166.747 303.633 182.137 302.019C200.78 300.064 226.223 292.999 226.223 292.999" stroke="black"/>
<path d="M103.791 280.788C103.791 280.788 117.617 268.263 127.849 266.169C147.442 262.157 150.617 270.189 165.512 268.159" stroke="black"/>
<path d="M97.3037 321.417C97.3037 321.417 79.6698 315.329 69.4373 317.421C49.8427 321.428 50.0779 330.061 35.5823 334.045" stroke="black"/>
<path d="M77.6041 235.11C77.6041 235.11 61.8415 230.685 51.609 232.777C32.0144 236.783 30.3784 243.754 15.8828 247.738" stroke="black"/>
<path d="M170.512 267.65C170.512 267.65 184.368 266.998 192.956 265.1C202.329 263.027 216.268 259.309 216.268 259.309" stroke="black"/>
<path d="M30.7852 335.541C30.7852 335.541 17.7864 340.384 9.14271 342.011C-0.291288 343.786 -14.5706 345.842 -14.5706 345.842" stroke="black"/>
<path d="M11.085 249.234C11.085 249.234 -1.9138 254.077 -10.5575 255.704C-19.9915 257.48 -34.2708 259.535 -34.2708 259.535" stroke="black"/>
<path d="M115.993 335.436C115.993 335.436 129.161 321.55 141.224 319.065C154.936 316.241 160.265 322.333 176.334 321.048" stroke="black"/>
<path d="M184.766 319.854C184.766 319.854 198.567 319.071 207.21 317.303C215.852 315.535 228.852 310.833 228.852 310.833" stroke="black"/>
<path d="M78.44 246.682C78.44 246.682 64.4965 243.387 53.8247 246.104C47.811 247.635 39.3408 252.64 39.3408 252.64" stroke="black"/>
<path d="M36.3129 255.299C36.3129 255.299 26.6354 260.629 20.0701 263.216C8.07436 267.942 0.632969 268.545 -12.0597 270.81C-18.9905 272.047 -32.3441 273.94 -32.3441 273.94" stroke="black"/>
<path d="M76.956 85H72.42L58.854 69.796V85H55.074V55.012H58.854V69.544L72.084 55.012H76.368L63.348 69.586L76.956 85ZM84.2289 62.488V71.854H96.4509V62.488H100.147V85H96.4509V74.962H84.2289V85H80.5329V62.488H84.2289ZM110.761 76.222C110.761 76.474 110.747 76.838 110.719 77.314C110.719 77.762 110.705 78.252 110.677 78.784C110.649 79.288 110.621 79.778 110.593 80.254C110.565 80.702 110.537 81.066 110.509 81.346L122.563 62.488H127.099V85H123.655V71.728C123.655 71.28 123.655 70.692 123.655 69.964C123.683 69.236 123.711 68.522 123.739 67.822C123.767 67.094 123.795 66.548 123.823 66.184L111.853 85H107.275V62.488H110.761V76.222ZM147.997 62.488V65.596H137.959V85H134.263V62.488H147.997ZM160.959 62.11C163.703 62.11 165.733 62.712 167.049 63.916C168.365 65.12 169.023 67.038 169.023 69.67V85H166.335L165.621 81.808H165.453C164.809 82.62 164.137 83.306 163.437 83.866C162.765 84.398 161.981 84.79 161.085 85.042C160.217 85.294 159.153 85.42 157.893 85.42C156.549 85.42 155.331 85.182 154.239 84.706C153.175 84.23 152.335 83.502 151.719 82.522C151.103 81.514 150.795 80.254 150.795 78.742C150.795 76.502 151.677 74.78 153.441 73.576C155.205 72.344 157.921 71.672 161.589 71.56L165.411 71.434V70.09C165.411 68.214 165.005 66.912 164.193 66.184C163.381 65.456 162.233 65.092 160.749 65.092C159.573 65.092 158.453 65.274 157.389 65.638C156.325 65.974 155.331 66.366 154.407 66.814L153.273 64.042C154.253 63.51 155.415 63.062 156.759 62.698C158.103 62.306 159.503 62.11 160.959 62.11ZM162.051 74.122C159.251 74.234 157.305 74.682 156.213 75.466C155.149 76.25 154.617 77.356 154.617 78.784C154.617 80.044 154.995 80.968 155.751 81.556C156.535 82.144 157.529 82.438 158.733 82.438C160.637 82.438 162.219 81.92 163.479 80.884C164.739 79.82 165.369 78.196 165.369 76.012V73.996L162.051 74.122ZM67.926 99.91C66.33 99.91 64.888 100.19 63.6 100.75C62.312 101.282 61.22 102.08 60.324 103.144C59.428 104.18 58.742 105.454 58.266 106.966C57.79 108.45 57.552 110.13 57.552 112.006C57.552 114.47 57.93 116.612 58.686 118.432C59.47 120.252 60.618 121.652 62.13 122.632C63.67 123.612 65.588 124.102 67.884 124.102C69.2 124.102 70.446 123.99 71.622 123.766C72.798 123.542 73.946 123.262 75.066 122.926V126.202C73.946 126.622 72.784 126.93 71.58 127.126C70.404 127.322 68.99 127.42 67.338 127.42C64.286 127.42 61.738 126.79 59.694 125.53C57.65 124.27 56.11 122.478 55.074 120.154C54.066 117.83 53.562 115.1 53.562 111.964C53.562 109.696 53.87 107.624 54.486 105.748C55.13 103.872 56.054 102.248 57.258 100.876C58.49 99.504 60.002 98.454 61.794 97.726C63.586 96.97 65.644 96.592 67.968 96.592C69.508 96.592 70.992 96.746 72.42 97.054C73.848 97.362 75.122 97.796 76.242 98.356L74.73 101.548C73.806 101.128 72.77 100.75 71.622 100.414C70.502 100.078 69.27 99.91 67.926 99.91ZM100.679 115.702C100.679 117.578 100.427 119.244 99.9231 120.7C99.4471 122.128 98.7471 123.346 97.8231 124.354C96.9271 125.362 95.8211 126.132 94.5051 126.664C93.2171 127.168 91.7751 127.42 90.1791 127.42C88.6951 127.42 87.3231 127.168 86.0631 126.664C84.8031 126.132 83.7111 125.362 82.7871 124.354C81.8631 123.346 81.1351 122.128 80.6031 120.7C80.0991 119.244 79.8471 117.578 79.8471 115.702C79.8471 113.21 80.2671 111.11 81.1071 109.402C81.9471 107.666 83.1511 106.35 84.7191 105.454C86.2871 104.53 88.1491 104.068 90.3051 104.068C92.3491 104.068 94.1411 104.53 95.6811 105.454C97.2491 106.35 98.4671 107.666 99.3351 109.402C100.231 111.11 100.679 113.21 100.679 115.702ZM83.6691 115.702C83.6691 117.466 83.8931 119.006 84.3411 120.322C84.8171 121.61 85.5451 122.604 86.5251 123.304C87.5051 124.004 88.7511 124.354 90.2631 124.354C91.7751 124.354 93.0211 124.004 94.0011 123.304C94.9811 122.604 95.6951 121.61 96.1431 120.322C96.6191 119.006 96.8571 117.466 96.8571 115.702C96.8571 113.91 96.6191 112.384 96.1431 111.124C95.6671 109.864 94.9391 108.898 93.9591 108.226C93.0071 107.526 91.7611 107.176 90.2211 107.176C87.9251 107.176 86.2591 107.932 85.2231 109.444C84.1871 110.956 83.6691 113.042 83.6691 115.702ZM124.639 110.158C124.639 111.558 124.219 112.65 123.379 113.434C122.539 114.218 121.461 114.75 120.145 115.03V115.198C121.545 115.394 122.763 115.898 123.799 116.71C124.835 117.494 125.353 118.726 125.353 120.406C125.353 121.358 125.171 122.24 124.807 123.052C124.471 123.864 123.939 124.564 123.211 125.152C122.483 125.74 121.545 126.202 120.397 126.538C119.249 126.846 117.863 127 116.239 127H106.537V104.488H116.197C117.793 104.488 119.221 104.67 120.481 105.034C121.769 105.37 122.777 105.958 123.505 106.798C124.261 107.61 124.639 108.73 124.639 110.158ZM121.531 120.406C121.531 119.118 121.041 118.194 120.061 117.634C119.081 117.074 117.639 116.794 115.735 116.794H110.233V124.018H115.819C117.667 124.018 119.081 123.752 120.061 123.22C121.041 122.66 121.531 121.722 121.531 120.406ZM120.901 110.62C120.901 109.556 120.509 108.786 119.725 108.31C118.969 107.806 117.723 107.554 115.987 107.554H110.233V113.728H115.315C117.135 113.728 118.521 113.476 119.473 112.972C120.425 112.468 120.901 111.684 120.901 110.62ZM139.43 104.068C141.362 104.068 143.014 104.488 144.386 105.328C145.786 106.168 146.85 107.358 147.578 108.898C148.334 110.41 148.712 112.188 148.712 114.232V116.458H133.298C133.354 119.006 133.998 120.952 135.23 122.296C136.49 123.612 138.24 124.27 140.48 124.27C141.908 124.27 143.168 124.144 144.26 123.892C145.38 123.612 146.528 123.22 147.704 122.716V125.95C146.556 126.454 145.422 126.818 144.302 127.042C143.182 127.294 141.852 127.42 140.312 127.42C138.184 127.42 136.294 126.986 134.642 126.118C133.018 125.25 131.744 123.962 130.82 122.254C129.924 120.518 129.476 118.404 129.476 115.912C129.476 113.448 129.882 111.334 130.694 109.57C131.534 107.806 132.696 106.448 134.18 105.496C135.692 104.544 137.442 104.068 139.43 104.068ZM139.388 107.092C137.624 107.092 136.224 107.666 135.188 108.814C134.18 109.934 133.578 111.502 133.382 113.518H144.848C144.848 112.23 144.652 111.11 144.26 110.158C143.868 109.206 143.266 108.464 142.454 107.932C141.67 107.372 140.648 107.092 139.388 107.092ZM169.983 107.596H162.633V127H158.979V107.596H151.713V104.488H169.983V107.596ZM193.579 115.702C193.579 117.578 193.328 119.244 192.824 120.7C192.348 122.128 191.648 123.346 190.724 124.354C189.828 125.362 188.722 126.132 187.406 126.664C186.118 127.168 184.676 127.42 183.08 127.42C181.596 127.42 180.224 127.168 178.964 126.664C177.704 126.132 176.612 125.362 175.688 124.354C174.764 123.346 174.036 122.128 173.504 120.7C173 119.244 172.748 117.578 172.748 115.702C172.748 113.21 173.168 111.11 174.008 109.402C174.848 107.666 176.052 106.35 177.62 105.454C179.188 104.53 181.05 104.068 183.206 104.068C185.25 104.068 187.042 104.53 188.582 105.454C190.15 106.35 191.368 107.666 192.236 109.402C193.132 111.11 193.579 113.21 193.579 115.702ZM176.57 115.702C176.57 117.466 176.794 119.006 177.242 120.322C177.718 121.61 178.446 122.604 179.426 123.304C180.406 124.004 181.652 124.354 183.164 124.354C184.676 124.354 185.922 124.004 186.902 123.304C187.882 122.604 188.596 121.61 189.044 120.322C189.52 119.006 189.758 117.466 189.758 115.702C189.758 113.91 189.52 112.384 189.044 111.124C188.568 109.864 187.84 108.898 186.86 108.226C185.908 107.526 184.662 107.176 183.122 107.176C180.826 107.176 179.16 107.932 178.124 109.444C177.088 110.956 176.57 113.042 176.57 115.702ZM217.539 110.158C217.539 111.558 217.119 112.65 216.279 113.434C215.439 114.218 214.361 114.75 213.045 115.03V115.198C214.445 115.394 215.663 115.898 216.699 116.71C217.735 117.494 218.253 118.726 218.253 120.406C218.253 121.358 218.071 122.24 217.707 123.052C217.371 123.864 216.839 124.564 216.111 125.152C215.383 125.74 214.445 126.202 213.297 126.538C212.149 126.846 210.763 127 209.139 127H199.437V104.488H209.097C210.693 104.488 212.121 104.67 213.381 105.034C214.669 105.37 215.677 105.958 216.405 106.798C217.161 107.61 217.539 108.73 217.539 110.158ZM214.431 120.406C214.431 119.118 213.941 118.194 212.961 117.634C211.981 117.074 210.539 116.794 208.635 116.794H203.133V124.018H208.719C210.567 124.018 211.981 123.752 212.961 123.22C213.941 122.66 214.431 121.722 214.431 120.406ZM213.801 110.62C213.801 109.556 213.409 108.786 212.625 108.31C211.869 107.806 210.623 107.554 208.887 107.554H203.133V113.728H208.215C210.035 113.728 211.421 113.476 212.373 112.972C213.325 112.468 213.801 111.684 213.801 110.62Z" fill="black"/>
</g>
<defs>
<linearGradient id="paint0_linear_67_204" x1="-5.76891" y1="274.117" x2="93.5495" y2="270.638" gradientUnits="userSpaceOnUse">
<stop stop-color="#F2EADD"/>
<stop offset="1" stop-color="#E7D8C1"/>
</linearGradient>
<linearGradient id="paint1_linear_67_204" x1="131.881" y1="268.41" x2="91.7129" y2="276.628" gradientUnits="userSpaceOnUse">
<stop stop-color="#F2EADD"/>
<stop offset="1" stop-color="#DCD1BF"/>
</linearGradient>
<linearGradient id="paint2_linear_67_204" x1="29.4118" y1="291.416" x2="118.587" y2="278.274" gradientUnits="userSpaceOnUse">
<stop stop-color="#D0E3EA"/>
<stop offset="1" stop-color="#B0D3E0"/>
</linearGradient>
</defs>
</svg>
