<svg width="55.894531" height="55.894531" viewBox="0 0 55.8945 55.8945" fill="none" xmlns="http://www.w3.org/2000/svg" xmlns:xlink="http://www.w3.org/1999/xlink">
	<desc>
			Created with Pixso.
	</desc>
	<defs/>
	<circle id="Ellipse 51" cx="27.947266" cy="27.947266" r="27.947083" fill="#8BA3C7" fill-opacity="1.000000"/>
	<path id="Vector 169" d="M20 37.5C20 37.5 24.82 35.96 28 36C30.98 36.03 35.5 37.5 35.5 37.5" stroke="#000000" stroke-opacity="1.000000" stroke-width="3.000000" stroke-linecap="round"/>
	<path id="Ellipse 67" d="M15.5 28C19.08 28 22 24.36 22 19.87C22 18.04 21.51 16.35 20.7 15C20.7 15 17.35 18.11 14.68 19.06C12.57 19.81 9 19.87 9 19.87C9 24.36 11.91 28 15.5 28Z" fill="#000000" fill-opacity="1.000000" fill-rule="nonzero"/>
	<path id="Ellipse 67" d="M16.19 26.94Q15.85 27 15.5 27Q15.14 27 14.8 26.94Q14.1 26.82 13.43 26.47Q12.45 25.95 11.68 24.99Q10.89 24 10.45 22.71Q10.4 22.55 10.35 22.39Q10.13 21.63 10.04 20.83Q10.6 20.79 11.14 20.74Q13.58 20.51 15.02 20Q16.83 19.35 19.3 17.47Q19.84 17.05 20.38 16.6Q20.56 17.04 20.69 17.52Q20.7 17.58 20.72 17.65Q21 18.72 21 19.87Q21 21.18 20.64 22.39Q20.59 22.55 20.54 22.71Q20.1 24 19.31 24.99Q18.54 25.95 17.56 26.47Q16.89 26.82 16.19 26.94ZM19.93 15.67C18.79 16.64 16.57 18.39 14.68 19.06C12.57 19.81 9 19.87 9 19.87C9 19.99 9 20.11 9 20.23C9.01 20.44 9.02 20.66 9.04 20.87C9.44 24.89 12.18 28 15.5 28C19.08 28 22 24.36 22 19.87C22 18.43 21.7 17.08 21.17 15.91C21.03 15.59 20.87 15.29 20.7 15C20.7 15 20.41 15.26 19.93 15.67Z" fill="#000000" fill-opacity="1.000000" fill-rule="evenodd"/>
	<path id="Ellipse 70" d="M38.5 28C34.91 28 32 24.36 32 19.87C32 18.04 32.48 16.35 33.29 15C33.29 15 36.64 18.11 39.31 19.06C41.42 19.81 45 19.87 45 19.87C45 24.36 42.08 28 38.5 28Z" fill="#000000" fill-opacity="1.000000" fill-rule="nonzero"/>
	<path id="Ellipse 70" d="M37.8 26.94Q38.14 27 38.5 27Q38.85 27 39.19 26.94Q39.89 26.82 40.56 26.47Q41.54 25.95 42.31 24.99Q43.1 24 43.54 22.71Q43.59 22.55 43.64 22.39Q43.86 21.63 43.95 20.83Q43.39 20.79 42.85 20.74Q40.41 20.51 38.97 20Q37.16 19.35 34.69 17.47Q34.15 17.05 33.61 16.6Q33.43 17.04 33.3 17.52Q33.29 17.58 33.27 17.65Q33 18.72 33 19.87Q33 21.18 33.35 22.39Q33.4 22.55 33.45 22.71Q33.89 24 34.68 24.99Q35.45 25.95 36.43 26.47Q37.1 26.82 37.8 26.94ZM34.06 15.67C35.2 16.64 37.42 18.39 39.31 19.06C41.42 19.81 45 19.87 45 19.87C45 19.99 44.99 20.11 44.99 20.23C44.98 20.44 44.97 20.66 44.95 20.87C44.55 24.89 41.81 28 38.5 28C34.91 28 32 24.36 32 19.87C32 18.43 32.29 17.08 32.82 15.91C32.96 15.59 33.12 15.29 33.29 15C33.29 15 33.58 15.26 34.06 15.67Z" fill="#000000" fill-opacity="1.000000" fill-rule="evenodd"/>
	<path id="Ellipse 69" d="M15.7 28.61C14.99 30.1 13.19 30.73 11.7 30.01C10.21 29.3 9.58 27.51 10.29 26.01C11.01 24.52 11.48 25.48 12.98 26.19C14.47 26.91 16.42 27.11 15.7 28.61Z" fill="#9FD5D2" fill-opacity="1.000000" fill-rule="nonzero"/>
	<path id="Ellipse 71" d="M38.29 28.61C39 30.1 40.8 30.73 42.29 30.01C43.78 29.3 44.41 27.51 43.7 26.01C42.98 24.52 42.51 25.48 41.01 26.19C39.52 26.91 37.57 27.11 38.29 28.61Z" fill="#9FD5D2" fill-opacity="1.000000" fill-rule="nonzero"/>
</svg>
