<svg width="55.894531" height="55.894531" viewBox="0 0 55.8945 55.8945" fill="none" xmlns="http://www.w3.org/2000/svg" xmlns:xlink="http://www.w3.org/1999/xlink">
	<desc>
			Created with Pixso.
	</desc>
	<defs/>
	<circle id="Ellipse 51" cx="27.947266" cy="27.947266" r="27.947083" fill="#DA99AF" fill-opacity="1.000000"/>
	<path id="Ellipse 72" d="M23 20C23 23 22.08 25.05 22.08 25.05C22.08 25.05 18.37 23.98 15.92 23.78C14.37 23.66 11.95 23.78 11.95 23.78C11.35 22.69 11 21.39 11 20C11 16.13 13.68 13 17 13C20.31 13 23 16.13 23 20Z" fill="#000000" fill-opacity="1.000000" fill-rule="nonzero"/>
	<path id="Vector 170" d="M36 33L19 33C19 33 19.48 43 27.74 43C35.03 43 36 33 36 33Z" fill="#000000" fill-opacity="1.000000" fill-rule="nonzero"/>
	<path id="Vector 170" d="M36 33C36 33 35.03 43 27.74 43C19.48 43 19 33 19 33L36 33Z" stroke="#000000" stroke-opacity="1.000000" stroke-width="2.000000"/>
	<path id="Ellipse 75" d="M33 20C33 23 33.91 25.05 33.91 25.05C33.91 25.05 37.62 23.98 40.07 23.78C41.62 23.66 44.04 23.78 44.04 23.78C44.64 22.69 45 21.39 45 20C45 16.13 42.31 13 39 13C35.68 13 33 16.13 33 20Z" fill="#000000" fill-opacity="1.000000" fill-rule="nonzero"/>
	<path id="Ellipse 74" d="M21.5 18.11C21.5 19.77 20.15 21.11 18.5 21.11C16.84 21.11 15.5 19.77 15.5 18.11C15.5 16.45 16.84 15.11 18.5 15.11C20.15 15.11 21.5 16.45 21.5 18.11Z" fill="#D9D9D9" fill-opacity="1.000000" fill-rule="nonzero"/>
	<path id="Ellipse 76" d="M34.5 18.11C34.5 19.77 35.84 21.11 37.5 21.11C39.15 21.11 40.5 19.77 40.5 18.11C40.5 16.45 39.15 15.11 37.5 15.11C35.84 15.11 34.5 16.45 34.5 18.11Z" fill="#D9D9D9" fill-opacity="1.000000" fill-rule="nonzero"/>
	<path id="Ellipse 77" d="M41 21C41 21.55 41.44 22 42 22C42.55 22 43 21.55 43 21C43 20.44 42.55 20 42 20C41.44 20 41 20.44 41 21Z" fill="#D9D9D9" fill-opacity="1.000000" fill-rule="nonzero"/>
	<path id="Ellipse 78" d="M13 21C13 21.55 13.44 22 14 22C14.55 22 15 21.55 15 21C15 20.44 14.55 20 14 20C13.44 20 13 20.44 13 21Z" fill="#D9D9D9" fill-opacity="1.000000" fill-rule="nonzero"/>
</svg>
