<svg width="79.892578" height="79.892578" viewBox="0 0 79.8926 79.8926" fill="none" xmlns="http://www.w3.org/2000/svg" xmlns:xlink="http://www.w3.org/1999/xlink">
	<desc>
			Created with Pixso.
	</desc>
	<defs/>
	<circle id="Ellipse 50" cx="39.946289" cy="39.947266" r="33.946449" fill="#F9DB5C" fill-opacity="1.000000"/>
	<circle id="Ellipse 50" cx="39.946289" cy="39.947266" r="36.946449" stroke="#000000" stroke-opacity="1.000000" stroke-width="6.000000"/>
	<path id="Vector 155" d="M14.69 34.44L14.67 34.46C12.99 34.45 11.68 33.13 11.68 31.45C11.68 29.77 13.01 28.45 14.69 28.46L14.71 28.48L14.69 34.44ZM31.97 28.51L31.99 28.5C33.67 28.5 34.98 29.82 34.98 31.5C34.98 33.18 33.65 34.5 31.97 34.5L31.95 34.48L31.97 28.51Z" fill="#F0B49C" fill-opacity="1.000000" fill-rule="nonzero"/>
	<path id="Vector 155" d="M14.68 31.46L31.98 31.5" stroke="#000000" stroke-opacity="1.000000" stroke-width="6.000000" stroke-linecap="round"/>
	<path id="Vector 156" d="M65.34 34.42L65.36 34.44C67.04 34.43 68.35 33.11 68.35 31.43C68.34 29.75 67.01 28.43 65.33 28.44L65.31 28.46L65.34 34.42ZM48.05 28.55L48.03 28.53C46.35 28.53 45.04 29.86 45.05 31.54C45.05 33.22 46.38 34.53 48.06 34.53L48.08 34.51L48.05 28.55Z" fill="#F0B49C" fill-opacity="1.000000" fill-rule="nonzero"/>
	<path id="Vector 156" d="M65.35 31.44L48.05 31.53" stroke="#000000" stroke-opacity="1.000000" stroke-width="6.000000" stroke-linecap="round"/>
	<path id="Vector 156" d="M25.73 53.36C25.73 53.36 34.26 53.36 39.92 53.36C45.57 53.36 54.15 53.36 54.15 53.36" stroke="#000000" stroke-opacity="1.000000" stroke-width="6.000000" stroke-linecap="round"/>
</svg>
