<svg width="430" height="445" viewBox="0 0 430 445" fill="none" xmlns="http://www.w3.org/2000/svg">
<path d="M330.809 146.944L326.834 113.257C326.834 113.257 310.901 117.707 302.613 124.668C296.915 129.452 289.836 139.617 289.836 139.617C289.836 139.617 278.68 153.776 278.629 165.7C278.608 170.679 278.66 174.998 279.145 179.396C279.483 182.454 280.03 185.551 280.906 188.933C284.134 201.383 286.517 207.573 292.367 218.695C301.646 219.438 307.37 217.712 314.946 211.884C322.752 205.88 326.706 198.929 329.392 189.442C330.25 186.411 330.978 183.122 331.662 179.522C333.231 171.259 332.267 159.143 331.493 152.253C331.13 149.025 330.809 146.944 330.809 146.944Z" fill="#D5E798"/>
<path d="M274.482 232.684C274.482 232.684 285.382 224.158 292.367 218.695M292.367 218.695C296.796 212.096 298.939 207.925 301.921 200.101M292.367 218.695C301.646 219.438 307.37 217.712 314.946 211.884C322.752 205.88 326.706 198.929 329.392 189.442M292.367 218.695C286.517 207.573 284.134 201.383 280.906 188.933C280.03 185.551 279.483 182.454 279.145 179.396M301.921 200.101C306.504 188.075 306.486 179.904 308.808 166.728M301.921 200.101L329.392 189.442M301.921 200.101L279.145 179.396M308.808 166.728C310.939 154.641 309.434 146.644 313.468 135.502C317.075 125.541 326.834 113.257 326.834 113.257M308.808 166.728L331.493 152.253M308.808 166.728L289.836 139.617M326.834 113.257L330.809 146.944C330.809 146.944 331.13 149.025 331.493 152.253M326.834 113.257C326.834 113.257 310.901 117.707 302.613 124.668C296.915 129.452 289.836 139.617 289.836 139.617M289.836 139.617C289.836 139.617 278.68 153.776 278.629 165.699C278.608 170.679 278.66 174.998 279.145 179.396M329.392 189.442C330.25 186.411 330.978 183.122 331.662 179.522C333.231 171.259 332.267 159.143 331.493 152.253" stroke="#BACB7C" stroke-width="5"/>
<path d="M316.484 127.469L288.042 165.762V180.346H310.574L341.564 163.012L390.839 127.469L367.199 101.609L341.564 87.6621L316.484 127.469Z" fill="#595880" stroke="#403F66" stroke-width="5"/>
<mask id="mask0_48_18" style="mask-type:alpha" maskUnits="userSpaceOnUse" x="285" y="84" width="110" height="99">
<path d="M316.484 127.469L288.042 165.762V180.346H310.574L341.564 163.012L390.839 127.469L367.199 101.609L341.564 87.6621L316.484 127.469Z" fill="#3B2C93" stroke="#403F66" stroke-width="5"/>
</mask>
<g mask="url(#mask0_48_18)">
<path d="M377.588 137.666L365.136 153.961L347.235 132.222L346.989 131.924L346.672 131.716L321.712 115.385L334.092 99.1857L363.611 117.986L377.588 137.666Z" fill="#CBCBE7" stroke="#403F66" stroke-width="5"/>
<path d="M337.572 180.605L325.119 196.9L307.218 175.162L306.972 174.863L306.656 174.656L281.695 158.325L294.075 142.125L323.594 160.926L337.572 180.605Z" fill="#CBCBE7" stroke="#403F66" stroke-width="5"/>
</g>
<mask id="path-7-inside-1_48_18" fill="white">
<path fill-rule="evenodd" clip-rule="evenodd" d="M292.543 344.936C310.615 374.257 354.157 377.303 389.797 351.74C425.437 326.176 439.679 281.683 421.607 252.362C403.535 223.041 359.992 219.995 324.352 245.558C288.712 271.122 274.471 315.615 292.543 344.936ZM328.656 319.033C336.603 331.927 355.751 333.266 371.423 322.025C387.096 310.783 393.359 291.218 385.412 278.324C377.464 265.43 358.317 264.09 342.644 275.332C326.971 286.574 320.709 306.139 328.656 319.033Z"/>
</mask>
<path fill-rule="evenodd" clip-rule="evenodd" d="M292.543 344.936C310.615 374.257 354.157 377.303 389.797 351.74C425.437 326.176 439.679 281.683 421.607 252.362C403.535 223.041 359.992 219.995 324.352 245.558C288.712 271.122 274.471 315.615 292.543 344.936ZM328.656 319.033C336.603 331.927 355.751 333.266 371.423 322.025C387.096 310.783 393.359 291.218 385.412 278.324C377.464 265.43 358.317 264.09 342.644 275.332C326.971 286.574 320.709 306.139 328.656 319.033Z" fill="#FDFAE7"/>
<path d="M389.797 351.74L386.883 347.677L389.797 351.74ZM421.607 252.362L425.863 249.738L421.607 252.362ZM324.352 245.558L321.438 241.496L324.352 245.558ZM371.423 322.025L368.509 317.962L371.423 322.025ZM328.656 319.033L332.912 316.41L328.656 319.033ZM342.644 275.332L345.558 279.395L342.644 275.332ZM386.883 347.677C352.522 372.323 312.734 368.165 296.799 342.313L288.286 347.56C308.496 380.349 355.793 382.283 392.712 355.802L386.883 347.677ZM417.35 254.985C433.544 281.258 421.264 323.016 386.883 347.677L392.712 355.802C429.611 329.336 445.814 282.108 425.863 249.738L417.35 254.985ZM327.267 249.621C361.628 224.975 401.416 229.133 417.35 254.985L425.863 249.738C405.653 216.949 358.357 215.015 321.438 241.496L327.267 249.621ZM296.799 342.313C280.606 316.04 292.885 274.282 327.267 249.621L321.438 241.496C284.539 267.962 268.335 315.19 288.286 347.56L296.799 342.313ZM368.509 317.962C354.115 328.286 338.722 325.835 332.912 316.41L324.4 321.657C334.485 338.019 357.386 338.247 374.338 326.088L368.509 317.962ZM381.155 280.947C387.223 290.793 382.923 307.623 368.509 317.962L374.338 326.088C391.269 313.943 399.494 291.643 389.668 275.7L381.155 280.947ZM345.558 279.395C359.952 269.07 375.346 271.522 381.155 280.947L389.668 275.7C379.583 259.338 356.681 259.11 339.73 271.269L345.558 279.395ZM332.912 316.41C326.844 306.564 331.145 289.734 345.558 279.395L339.73 271.269C322.798 283.414 314.573 305.714 324.4 321.657L332.912 316.41Z" fill="black" mask="url(#path-7-inside-1_48_18)"/>
<mask id="mask1_48_18" style="mask-type:alpha" maskUnits="userSpaceOnUse" x="284" y="228" width="146" height="142">
<mask id="path-9-inside-2_48_18" fill="white">
<path fill-rule="evenodd" clip-rule="evenodd" d="M292.543 344.936C310.615 374.257 354.157 377.303 389.797 351.74C425.437 326.176 439.679 281.683 421.607 252.362C403.535 223.041 359.992 219.995 324.352 245.558C288.712 271.122 274.471 315.615 292.543 344.936ZM328.656 319.033C336.603 331.927 355.751 333.266 371.423 322.025C387.096 310.783 393.359 291.218 385.412 278.324C377.464 265.43 358.317 264.09 342.644 275.332C326.971 286.574 320.709 306.139 328.656 319.033Z"/>
</mask>
<path fill-rule="evenodd" clip-rule="evenodd" d="M292.543 344.936C310.615 374.257 354.157 377.303 389.797 351.74C425.437 326.176 439.679 281.683 421.607 252.362C403.535 223.041 359.992 219.995 324.352 245.558C288.712 271.122 274.471 315.615 292.543 344.936ZM328.656 319.033C336.603 331.927 355.751 333.266 371.423 322.025C387.096 310.783 393.359 291.218 385.412 278.324C377.464 265.43 358.317 264.09 342.644 275.332C326.971 286.574 320.709 306.139 328.656 319.033Z" fill="#F4F4F2"/>
<path d="M389.797 351.74L386.883 347.677L389.797 351.74ZM421.607 252.362L425.863 249.738L421.607 252.362ZM324.352 245.558L321.438 241.496L324.352 245.558ZM371.423 322.025L368.509 317.962L371.423 322.025ZM328.656 319.033L332.912 316.41L328.656 319.033ZM342.644 275.332L345.558 279.395L342.644 275.332ZM386.883 347.677C352.522 372.323 312.734 368.165 296.799 342.313L288.286 347.56C308.496 380.349 355.793 382.283 392.712 355.802L386.883 347.677ZM417.35 254.985C433.544 281.258 421.264 323.016 386.883 347.677L392.712 355.802C429.611 329.336 445.814 282.108 425.863 249.738L417.35 254.985ZM327.267 249.621C361.628 224.975 401.416 229.133 417.35 254.985L425.863 249.738C405.653 216.949 358.357 215.015 321.438 241.496L327.267 249.621ZM296.799 342.313C280.606 316.04 292.885 274.282 327.267 249.621L321.438 241.496C284.539 267.962 268.335 315.19 288.286 347.56L296.799 342.313ZM368.509 317.962C354.115 328.286 338.722 325.835 332.912 316.41L324.4 321.657C334.485 338.019 357.386 338.247 374.338 326.088L368.509 317.962ZM381.155 280.947C387.223 290.793 382.923 307.623 368.509 317.962L374.338 326.088C391.269 313.943 399.494 291.643 389.668 275.7L381.155 280.947ZM345.558 279.395C359.952 269.07 375.346 271.522 381.155 280.947L389.668 275.7C379.583 259.338 356.681 259.11 339.73 271.269L345.558 279.395ZM332.912 316.41C326.844 306.564 331.145 289.734 345.558 279.395L339.73 271.269C322.798 283.414 314.573 305.714 324.4 321.657L332.912 316.41Z" fill="black" mask="url(#path-9-inside-2_48_18)"/>
</mask>
<g mask="url(#mask1_48_18)">
</g>
<path d="M316.236 127.894L287.839 166.171V180.749H310.336L341.278 163.423L390.475 127.894L366.872 102.044L341.278 88.1035L316.236 127.894Z" stroke="#403F66" stroke-width="5"/>
<mask id="path-12-inside-3_48_18" fill="white">
<path fill-rule="evenodd" clip-rule="evenodd" d="M292.545 344.936C310.617 374.257 354.159 377.303 389.799 351.74C425.439 326.176 439.681 281.683 421.609 252.362C403.537 223.041 359.994 219.995 324.354 245.558C288.714 271.122 274.473 315.615 292.545 344.936ZM328.658 319.033C336.605 331.927 355.753 333.266 371.425 322.025C387.098 310.783 393.361 291.218 385.414 278.324C377.466 265.43 358.319 264.09 342.646 275.332C326.973 286.574 320.711 306.139 328.658 319.033Z"/>
</mask>
<path d="M389.799 351.74L386.885 347.677L389.799 351.74ZM292.545 344.936L288.288 347.56H288.288L292.545 344.936ZM421.609 252.362L425.865 249.738L421.609 252.362ZM324.354 245.558L321.44 241.496L324.354 245.558ZM371.425 322.025L368.511 317.962L371.425 322.025ZM328.658 319.033L332.914 316.41L328.658 319.033ZM342.646 275.332L345.56 279.395L342.646 275.332ZM386.885 347.677C352.524 372.323 312.736 368.165 296.801 342.313L288.288 347.56C308.498 380.349 355.795 382.283 392.714 355.802L386.885 347.677ZM417.352 254.985C433.546 281.258 421.266 323.016 386.885 347.677L392.714 355.802C429.613 329.336 445.816 282.108 425.865 249.738L417.352 254.985ZM327.269 249.621C361.63 224.975 401.418 229.133 417.352 254.985L425.865 249.738C405.655 216.949 358.359 215.015 321.44 241.496L327.269 249.621ZM296.801 342.313C280.608 316.04 292.887 274.282 327.269 249.621L321.44 241.496C284.541 267.962 268.337 315.19 288.288 347.56L296.801 342.313ZM368.511 317.962C354.117 328.286 338.724 325.835 332.914 316.41L324.401 321.657C334.486 338.019 357.388 338.247 374.34 326.088L368.511 317.962ZM381.157 280.947C387.225 290.793 382.925 307.623 368.511 317.962L374.34 326.088C391.271 313.943 399.496 291.643 389.67 275.7L381.157 280.947ZM345.56 279.395C359.954 269.07 375.348 271.522 381.157 280.947L389.67 275.7C379.585 259.338 356.683 259.11 339.732 271.269L345.56 279.395ZM332.914 316.41C326.846 306.564 331.147 289.734 345.56 279.395L339.732 271.269C322.8 283.414 314.575 305.714 324.401 321.657L332.914 316.41Z" fill="#65645C" mask="url(#path-12-inside-3_48_18)"/>
<ellipse cx="194.285" cy="201.64" rx="183.474" ry="39.0564" fill="#CAC8B9"/>
<path d="M76.1733 206.188C83.5914 197.834 97.5164 187.53 97.5164 187.53L189.905 167.125L287.462 174.787C287.462 174.787 302.857 181.218 311.538 187.53C326.548 198.443 342.74 224.449 342.74 224.449L360.502 264.783L318.259 300.035L181.227 310.634L48.959 259.701C48.959 259.701 60.8751 223.416 76.1733 206.188Z" fill="#D9D9D9" stroke="black" stroke-width="5"/>
<path d="M377.759 202.547C377.759 180.796 298.406 161.674 196.317 161.674C94.227 161.674 10.8105 179.463 10.8105 201.214" stroke="#65645C" stroke-width="5"/>
<path d="M364.905 166.592L391.019 176.478C391.019 176.478 378.04 198.305 367.369 209.066C360.035 216.463 347.362 225.117 347.362 225.117C347.362 225.117 328.959 238.989 318.872 237.539C314.66 236.933 311.047 236.308 307.618 235.065C305.234 234.2 302.939 233.036 300.593 231.372C291.96 225.247 288.119 221.107 282.124 211.465C286.871 198.328 291.641 190.504 300.944 180.598C310.528 170.394 318.68 165.724 328.238 163.159C331.291 162.34 334.487 161.736 337.92 161.235C345.798 160.084 355.46 162.985 360.823 164.952C363.336 165.874 364.905 166.592 364.905 166.592Z" fill="#D5E798"/>
<path d="M259.97 234.817C259.97 234.817 273.472 220.585 282.124 211.465M282.124 211.465C290.256 206.082 295.015 203.602 303.341 200.41M282.124 211.465C286.871 198.328 291.641 190.504 300.944 180.598C310.528 170.394 318.68 165.724 328.238 163.159M282.124 211.465C288.119 221.107 291.96 225.247 300.593 231.372C302.939 233.036 305.234 234.2 307.618 235.065M303.341 200.41C316.138 195.503 323.02 196.572 335.479 194.989M303.341 200.41L328.238 163.159M303.341 200.41L307.618 235.065M335.479 194.989C346.908 193.537 352.782 196.673 364.517 192.425C375.007 188.627 391.019 176.478 391.019 176.478M335.479 194.989L360.823 164.952M335.479 194.989L347.362 225.117M391.019 176.478L364.905 166.592C364.905 166.592 363.336 165.874 360.823 164.952M391.019 176.478C391.019 176.478 378.04 198.305 367.369 209.066C360.035 216.463 347.362 225.117 347.362 225.117M347.362 225.117C347.362 225.117 328.959 238.989 318.872 237.539C314.66 236.933 311.047 236.308 307.618 235.065M328.238 163.159C331.291 162.34 334.487 161.736 337.92 161.235C345.798 160.084 355.46 162.985 360.823 164.952" stroke="#BACB7C" stroke-width="5"/>
<path d="M45.2928 165.848L40.3091 127.793C40.3091 127.793 59.7815 127.666 71.2255 132.676C79.0913 136.12 90.0593 145.009 90.0593 145.009C90.0593 145.009 106.817 156.987 110.247 170C111.68 175.434 112.841 180.17 113.531 185.127C114.01 188.575 114.261 192.129 114.215 196.1C114.047 210.715 113.073 218.225 109.531 232.21C99.1332 235.928 92.1021 235.834 81.7929 231.839C71.1717 227.723 64.6863 221.366 58.9323 211.84C57.0945 208.797 55.3312 205.431 53.5317 201.712C49.4012 193.174 47.0757 179.634 46.0122 171.863C45.514 168.222 45.2928 165.848 45.2928 165.848Z" fill="#D5E798"/>
<path d="M133.933 241.894C133.933 241.894 119.061 235.992 109.531 232.21M109.531 232.21C102.601 226.386 98.9716 222.5 93.3503 214.885M109.531 232.21C99.1332 235.928 92.1021 235.834 81.7929 231.839C71.1717 227.723 64.6863 221.366 58.9323 211.84M109.531 232.21C113.073 218.225 114.047 210.715 114.215 196.1C114.261 192.129 114.01 188.575 113.531 185.127M93.3503 214.885C84.7098 203.179 82.4199 194.244 76.0383 180.575M93.3503 214.885L58.9323 211.84M93.3503 214.885L113.531 185.127M76.0383 180.575C70.184 168.035 69.6428 158.825 61.8795 147.914C54.9395 138.159 40.3091 127.793 40.3091 127.793M76.0383 180.575L46.0122 171.863M76.0383 180.575L90.0593 145.009M40.3091 127.793L45.2928 165.848C45.2928 165.848 45.514 168.222 46.0122 171.863M40.3091 127.793C40.3091 127.793 59.7815 127.666 71.2255 132.676C79.0913 136.12 90.0593 145.009 90.0593 145.009M90.0593 145.009C90.0593 145.009 106.817 156.987 110.247 170C111.68 175.434 112.841 180.17 113.531 185.127M58.9323 211.84C57.0945 208.797 55.3312 205.431 53.5317 201.712C49.4012 193.174 47.0757 179.634 46.0122 171.863" stroke="#BACB7C" stroke-width="5"/>
<path d="M13.9393 201.071L4.00077 164.163C4.00077 164.163 23.2595 161.057 35.2467 164.265C43.4859 166.47 55.5121 173.591 55.5121 173.591C55.5121 173.591 73.6755 182.882 78.7825 195.238C80.9154 200.399 82.6883 204.909 84.0224 209.71C84.9503 213.05 85.666 216.53 86.143 220.467C87.8988 234.96 87.9223 242.543 86.2562 256.929C76.4523 262.2 69.48 263.183 58.7496 260.807C47.6946 258.358 40.4387 253.059 33.4899 244.51C31.2705 241.779 29.0824 238.717 26.8119 235.311C21.6002 227.492 17.5173 214.444 15.4426 206.915C14.4706 203.387 13.9393 201.071 13.9393 201.071Z" fill="#D5E798"/>
<path d="M111.684 262.78C111.684 262.78 96.1865 259.214 86.2562 256.929M86.2562 256.929C78.6299 252.224 74.5262 248.933 67.9602 242.255M86.2562 256.929C76.4523 262.2 69.48 263.183 58.7496 260.807C47.6946 258.358 40.4387 253.059 33.4899 244.51M86.2562 256.929C87.9223 242.543 87.8988 234.96 86.143 220.467C85.666 216.53 84.9503 213.05 84.0224 209.71M67.9602 242.255C57.8675 231.991 54.4257 223.497 46.3107 210.943M67.9602 242.255L33.4899 244.51M67.9602 242.255L84.0224 209.71M46.3107 210.943C38.8663 199.426 37.1193 190.392 27.9994 180.779C19.8467 172.186 4.00077 164.163 4.00077 164.163M46.3107 210.943L15.4426 206.915M46.3107 210.943L55.5121 173.591M4.00077 164.163L13.9393 201.071C13.9393 201.071 14.4706 203.387 15.4426 206.915M4.00077 164.163C4.00077 164.163 23.2595 161.057 35.2467 164.265C43.4859 166.47 55.5121 173.591 55.5121 173.591M55.5121 173.591C55.5121 173.591 73.6755 182.882 78.7825 195.238C80.9154 200.399 82.6883 204.909 84.0224 209.71M33.4899 244.51C31.2705 241.779 29.0824 238.717 26.8119 235.311C21.6002 227.492 17.5173 214.444 15.4426 206.915" stroke="#BACB7C" stroke-width="5"/>
<path d="M104.983 180.69C107.162 199.658 104.983 222.051 104.983 222.051L103.099 223.685L81.0475 231.057C81.0475 231.057 70.779 219.621 56.1887 201.969C44.9746 188.401 47.8923 165.619 63.5761 158.974C80.3116 151.883 102.771 161.441 104.983 180.69Z" fill="#FABDC2"/>
<path d="M71.7393 196.35C71.7393 196.35 79.0622 200.093 82.7467 203.881C87.1488 208.408 91.2054 217.987 91.2054 217.987C91.2054 217.987 96.5994 206.072 95.6378 198.183C94.8568 191.776 89.2846 183.121 89.2846 183.121M104.983 222.051C104.983 222.051 107.162 199.658 104.983 180.69C102.771 161.441 80.3116 151.883 63.5761 158.974C47.8923 165.619 44.9746 188.401 56.1887 201.969C70.779 219.621 81.0475 231.057 81.0475 231.057L103.099 223.685L104.983 222.051Z" stroke="#EE6E89" stroke-width="5" stroke-linecap="round"/>
<path d="M61.9059 186.391C79.1321 190.858 97.7999 200.931 97.7999 200.931L98.5555 203.408L97.201 228.269C97.201 228.269 83.667 234.62 63.2191 243.149C47.5029 249.705 28.758 238.75 28.5041 220.575C28.2333 201.181 44.4236 181.859 61.9059 186.391Z" fill="#FABDC2"/>
<path d="M63.8098 225.47C63.8098 225.47 69.6315 219.39 74.2148 217C79.6907 214.146 89.4296 213.416 89.4296 213.416C89.4296 213.416 80.9851 203.78 73.8015 201.978C67.9665 200.515 58.4969 203.1 58.4969 203.1M97.7999 200.931C97.7999 200.931 79.1321 190.858 61.9059 186.391C44.4236 181.859 28.2333 201.181 28.5041 220.575C28.758 238.75 47.5029 249.705 63.2191 243.149C83.667 234.62 97.201 228.269 97.201 228.269L98.5555 203.408L97.7999 200.931Z" stroke="#EE6E89" stroke-width="5" stroke-linecap="round"/>
<path d="M72.0561 28.5154C73.2814 29.1265 74.6274 29.7881 76.0856 30.4913C83.8937 34.257 94.9264 39.2222 107.835 44.0245C133.579 53.6023 167.08 62.646 197.395 59.9867L197.428 59.9838L197.462 59.9799C226.421 56.6509 256.618 42.0644 279.428 28.4634C290.865 21.6435 300.512 15.031 307.301 10.122C308.631 9.16035 309.852 8.26379 310.955 7.44355C309.617 11.1783 307.991 16.0265 306.331 21.7109C302.322 35.4398 298.094 54.1209 297.29 73.8112C296.701 88.2449 299.537 103.546 302.456 116.756C303.117 119.743 303.773 122.59 304.399 125.302C305.175 128.67 305.904 131.828 306.531 134.787C307.661 140.118 308.37 144.401 308.37 147.469C308.37 202.25 256.504 237.652 197.176 237.652C137.982 237.652 90.2677 202.356 90.2677 147.469C90.2677 144.878 90.8884 141.42 91.8448 137.105C92.1783 135.6 92.5532 133.989 92.9467 132.298C93.6506 129.272 94.4141 125.991 95.1069 122.605C97.2823 111.975 98.9432 99.5387 96.5373 87.2209C93.2184 70.2285 85.7892 53.5437 79.2462 41.1711C76.6112 36.1884 74.1087 31.8841 72.0561 28.5154Z" fill="#FCE2A9" stroke="#FA6B33" stroke-width="5"/>
<mask id="mask2_48_18" style="mask-type:alpha" maskUnits="userSpaceOnUse" x="64" y="0" width="253" height="241">
<path d="M72.0561 28.5154C73.2814 29.1265 74.6274 29.7881 76.0856 30.4913C83.8937 34.257 94.9264 39.2222 107.835 44.0245C133.579 53.6023 167.08 62.646 197.395 59.9867L197.428 59.9838L197.462 59.9799C226.421 56.6509 256.618 42.0644 279.428 28.4634C290.865 21.6435 300.512 15.031 307.301 10.122C308.631 9.16035 309.852 8.26379 310.955 7.44355C309.617 11.1783 307.991 16.0265 306.331 21.7109C302.322 35.4398 298.094 54.1209 297.29 73.8112C296.701 88.2449 299.537 103.546 302.456 116.756C303.117 119.743 303.773 122.59 304.399 125.302C305.175 128.67 305.904 131.828 306.531 134.787C307.661 140.118 308.37 144.401 308.37 147.469C308.37 202.25 256.504 237.652 197.176 237.652C137.982 237.652 90.2677 202.356 90.2677 147.469C90.2677 144.878 90.8884 141.42 91.8448 137.105C92.1783 135.6 92.5532 133.989 92.9467 132.298C93.6506 129.272 94.4141 125.991 95.1069 122.605C97.2823 111.975 98.9432 99.5387 96.5373 87.2209C93.2184 70.2285 85.7892 53.5437 79.2462 41.1711C76.6112 36.1884 74.1087 31.8841 72.0561 28.5154Z" fill="#FCE2A9" stroke="#E97A4B" stroke-width="5"/>
</mask>
<g mask="url(#mask2_48_18)">
<path d="M293.841 63.632L283.72 72.9163C283.72 72.9163 283.312 68.9791 283.158 63.632L293.841 54.8259L283.72 67.8956L293.841 63.632Z" fill="#FCE2A9"/>
<path d="M310.98 8.60352C310.98 8.60352 286.214 28.9578 283.72 48.5301C283.081 53.5506 283.028 59.0981 283.158 63.632M283.158 63.632C283.312 68.9791 283.72 72.9163 283.72 72.9163L293.841 63.632L283.72 67.8956L293.841 54.8259L283.158 63.632Z" stroke="#FA6B33" stroke-width="5" stroke-linejoin="round"/>
<path d="M102.838 79.7324L113.513 82.6413C113.513 82.6413 113.422 81.61 113.114 79.7324C112.906 78.4652 112.6 76.8125 112.156 74.8312L97.9253 68.5354L113.114 79.7324L102.838 79.7324Z" fill="#FCE2A9"/>
<path d="M73.325 30.3224C73.325 30.3224 103.659 46.7186 109.595 65.4083C110.746 69.0338 111.57 72.2183 112.156 74.8312M113.114 79.7324C113.422 81.61 113.513 82.6413 113.513 82.6413L102.838 79.7324L113.114 79.7324ZM113.114 79.7324L97.9253 68.5354L112.156 74.8312M113.114 79.7324C112.906 78.4652 112.6 76.8125 112.156 74.8312" stroke="#FA6B33" stroke-width="5" stroke-linejoin="round"/>
<path d="M212.727 69.2898C206.324 76.9467 198.802 91.0064 198.802 91.0064C198.802 91.0064 190.518 76.1955 182.771 69.2898C174.496 61.9135 157.653 56.9772 157.653 56.9772L179.816 59.4875H194.111L209.513 56.9772L235.702 49.207C235.702 49.207 220.462 60.0399 212.727 69.2898Z" fill="#FA6B33" stroke="#FA6B33" stroke-width="5"/>
</g>
<path d="M72.5024 28.4449C73.7266 29.0546 75.0714 29.7147 76.528 30.4163C84.3354 34.1768 95.3672 39.1353 108.274 43.931C134.016 53.4957 167.514 62.5269 197.825 59.8713L197.859 59.8684L197.892 59.8645C226.848 56.5401 257.042 41.9737 279.85 28.3912C291.287 21.5806 300.932 14.9771 307.721 10.0748C309.05 9.11478 310.271 8.21973 311.374 7.40084C310.036 11.1297 308.411 15.969 306.752 21.6425C302.743 35.3529 298.516 54.0091 297.712 73.6733C297.123 88.0882 299.959 103.369 302.878 116.561C303.538 119.545 304.195 122.388 304.82 125.096C305.597 128.459 306.325 131.613 306.952 134.567C308.082 139.891 308.791 144.168 308.791 147.23C308.791 201.932 256.933 237.288 197.607 237.288C138.415 237.288 90.7081 202.038 90.7081 147.23C90.7081 144.645 91.3285 141.191 92.2849 136.882C92.6184 135.38 92.9932 133.771 93.3867 132.082C94.0905 129.061 94.854 125.784 95.5468 122.403C97.722 111.787 99.383 99.3661 96.9771 87.0638C93.6583 70.0937 86.2294 53.431 79.6869 41.0752C77.0543 36.1033 74.5539 31.8078 72.5024 28.4449Z" stroke="#E97A4B" stroke-width="5"/>
<path d="M336.209 179.428L307.472 196.124L297.905 213.458L287.747 192.498L297.905 179.428L322.69 155.401L351.686 132.608L378.761 116.51L413.667 101.01L426.336 137.47L420.722 184.29L376.508 172.734L336.209 179.428Z" fill="#595880" stroke="black" stroke-width="5"/>
<mask id="mask3_48_18" style="mask-type:alpha" maskUnits="userSpaceOnUse" x="284" y="97" width="145" height="122">
<path d="M336.209 179.428L307.472 196.124L297.905 213.458L287.747 192.498L297.905 179.428L322.69 155.401L351.686 132.608L378.761 116.51L413.667 101.01L426.336 137.47L420.722 184.29L376.508 172.734L336.209 179.428Z" fill="#3B2C93" stroke="black" stroke-width="5"/>
</mask>
<g mask="url(#mask3_48_18)">
<path d="M363.1 90.3809L386.382 86.4486L405.811 139.431L402.071 194.551L378.789 198.483L380.25 141.57L363.1 90.3809Z" fill="#CBCBE7"/>
<path d="M309.232 111.182L331.321 102.322L355.45 152.428L366.669 204.882L344.58 213.742L333.712 159.756L309.232 111.182Z" fill="#CBCBE7"/>
<path d="M268.097 139.225L289.291 128.109L317.786 175.471L333.641 226.514L312.447 237.63L296.804 185.026L268.097 139.225Z" fill="#CBCBE7"/>
</g>
<path d="M336.209 179.428L307.472 196.124L297.905 213.458L287.747 192.498L297.905 179.428L322.69 155.401L351.686 132.608L378.761 116.51L413.667 101.01L426.336 137.47L420.722 184.29L376.508 172.734L336.209 179.428Z" stroke="#403F66" stroke-width="5"/>
<path d="M180.37 214.056C155.043 208.318 97.6671 188.834 97.6671 188.834L79.0137 204.813L102.838 234.657L140.034 246.451L220.41 261.633L277.035 238.363L275.151 199.233L229.497 214.056H180.37Z" fill="#595880" stroke="black" stroke-width="5"/>
<mask id="mask4_48_18" style="mask-type:alpha" maskUnits="userSpaceOnUse" x="75" y="186" width="205" height="79">
<path d="M180.37 214.056C155.043 208.318 97.6671 188.834 97.6671 188.834L79.0137 204.813L102.838 234.657L140.034 246.451L220.41 261.633L277.035 238.363L275.151 199.233L229.497 214.056H180.37Z" fill="#3B2C93" stroke="black" stroke-width="5"/>
</mask>
<g mask="url(#mask4_48_18)">
<rect x="178.043" y="201.584" width="15.5137" height="60.0094" fill="#CBCBE7"/>
<rect x="221.334" y="188.834" width="15.5137" height="60.0094" fill="#CBCBE7"/>
<rect width="15.8785" height="58.7698" transform="matrix(0.822924 0.568151 -0.51023 0.860038 109.037 179.828)" fill="#CBCBE7"/>
</g>
<path d="M180.37 214.056C155.043 208.318 97.6671 188.834 97.6671 188.834L79.0137 204.813L102.838 234.657L140.034 246.451L220.41 261.633L277.035 238.363L275.151 199.233L229.497 214.056H180.37Z" stroke="#403F66" stroke-width="5"/>
<path d="M376.626 205.161C376.922 209.518 377.073 213.977 377.073 218.536C377.073 272.656 362.643 329.15 332.26 371.72C301.943 414.198 255.716 442.88 191.71 441.612C74.3915 439.29 10.0391 334.879 10.0391 226.623C10.0391 219.048 10.447 211.709 11.2394 204.612C13.4269 206.527 16.5968 208.996 20.8334 211.573C29.8779 217.075 43.7514 223.051 63.2434 225.194C109.014 233.82 139.794 235.896 191.252 235.896C238.213 235.896 292.161 232.199 325.746 225.192C345.993 223.049 359.649 217.078 368.301 211.543C371.924 209.226 374.659 206.992 376.626 205.161Z" fill="#FDFAE7" stroke="black" stroke-width="5"/>
<mask id="mask5_48_18" style="mask-type:alpha" maskUnits="userSpaceOnUse" x="7" y="199" width="373" height="246">
<path d="M376.626 205.163C376.922 209.52 377.073 213.979 377.073 218.538C377.073 272.658 362.643 329.152 332.26 371.722C301.943 414.2 255.716 442.882 191.71 441.614C74.3915 439.292 10.0391 334.881 10.0391 226.625C10.0391 219.05 10.447 211.711 11.2394 204.614C13.4269 206.529 16.5968 208.998 20.8334 211.575C29.8779 217.077 43.7514 223.053 63.2434 225.196C109.014 233.822 139.794 235.898 191.252 235.898C238.213 235.898 292.161 232.2 325.746 225.194C345.993 223.051 359.649 217.08 368.301 211.545C371.924 209.228 374.659 206.994 376.626 205.163Z" fill="#F4F4F2" stroke="black" stroke-width="5"/>
</mask>
<g mask="url(#mask5_48_18)">
<g filter="url(#filter0_f_48_18)">
<path d="M353.569 705.21L290.701 714.016L291.329 717.403L353.569 732.983L467.927 728.919L526.362 682.856L586.681 465.93L548.34 484.897L521.966 499.162L486.765 512.032C486.765 512.032 495.842 614.737 459.727 657.752C429.602 693.634 353.569 705.21 353.569 705.21Z" fill="#D9D1CD"/>
</g>
<g filter="url(#filter1_f_48_18)">
<path d="M460.696 523.826L415.595 447.917C415.595 447.917 411.122 493.235 423.537 523.826C433.868 549.28 441.699 569.463 464.648 582.082C478.245 589.559 498.372 596.546 498.372 596.546C498.372 596.546 530.008 571.015 540.001 547.335C549.697 524.356 547.425 483.182 547.425 483.182L544.95 447.917L532.059 444.172L489.433 457.521C489.433 457.521 534.487 490.413 498.372 533.429C468.247 569.31 460.696 523.826 460.696 523.826Z" fill="#D9D1CD"/>
</g>
<g filter="url(#filter2_f_48_18)">
<path d="M486.849 584.394L531.95 508.486C531.95 508.486 536.423 553.803 524.008 584.394C513.677 609.849 505.846 630.031 482.897 642.65C469.3 650.127 449.173 657.115 449.173 657.115C449.173 657.115 417.537 631.583 407.544 607.904C397.848 584.925 400.12 543.75 400.12 543.75L402.595 508.486L415.486 504.74L458.112 518.089C458.112 518.089 413.058 550.982 449.173 593.997C479.298 629.879 486.849 584.394 486.849 584.394Z" fill="#D9D1CD"/>
</g>
</g>
<path d="M376.626 205.161C376.922 209.518 377.073 213.977 377.073 218.536C377.073 272.656 362.643 329.15 332.26 371.72C301.943 414.198 255.716 442.88 191.71 441.612C74.3915 439.29 10.0391 334.879 10.0391 226.623C10.0391 219.048 10.447 211.709 11.2394 204.612C13.4269 206.527 16.5968 208.996 20.8334 211.573C29.8779 217.075 43.7514 223.051 63.2434 225.194C109.014 233.82 139.794 235.896 191.252 235.896C238.213 235.896 292.161 232.199 325.746 225.192C345.993 223.049 359.649 217.078 368.301 211.543C371.924 209.226 374.659 206.992 376.626 205.161Z" stroke="#65645C" stroke-width="5"/>
<path d="M64.1748 235.668V235.746C64.1747 246.787 64.1746 261.896 76.4528 288.545C86.8947 305.657 104.144 322.499 118.59 333.62C123.791 337.625 128.577 340.847 132.494 343.054C134.454 344.158 136.158 344.987 137.561 345.533C139.015 346.098 139.952 346.282 140.445 346.282C142.068 346.282 144.27 345.283 146.997 342.832C149.657 340.441 152.48 336.971 155.312 332.766C160.961 324.379 166.403 313.431 170.454 303.361C174.255 292.957 175.438 278.989 175.436 266.264C175.434 253.571 174.257 242.415 173.509 237.832C171.607 226.181 166.636 212.055 156.985 204.881C152.217 201.336 145.84 199.084 139.378 197.73C132.947 196.382 126.629 195.965 122.144 195.965C117.968 195.965 110.72 196.561 103.004 198.021C95.2577 199.486 87.2856 201.775 81.5203 205.048C68.6134 212.376 64.1748 224.509 64.1748 235.668Z" fill="#FCE2A9" stroke="#FA6B33" stroke-width="5" stroke-linecap="round"/>
<path d="M188.743 350.503L153.301 346.59C153.301 346.59 157.86 326.167 165.115 315.384C170.101 307.973 180.733 298.62 180.733 298.62C180.733 298.62 195.533 283.946 208.066 283.476C213.301 283.28 217.841 283.2 222.468 283.668C225.685 283.993 228.944 284.583 232.506 285.584C245.618 289.267 252.142 292.09 263.877 299.154C264.728 310.936 262.956 318.276 256.887 328.114C250.634 338.249 243.357 343.516 233.404 347.256C230.225 348.45 226.773 349.489 222.994 350.481C214.32 352.758 201.577 351.944 194.329 351.193C190.933 350.841 188.743 350.503 188.743 350.503Z" fill="#D5E798"/>
<path d="M278.448 275.924C278.448 275.924 269.567 290.082 263.877 299.154M263.877 299.154C256.973 305.014 252.605 307.883 244.403 311.942M263.877 299.154C264.728 310.936 262.956 318.276 256.887 328.114C250.634 338.249 243.357 343.516 233.404 347.256M263.877 299.154C252.142 292.09 245.618 289.267 232.506 285.584C228.944 284.583 225.685 283.993 222.468 283.668M244.403 311.942C231.796 318.182 223.206 318.436 209.374 321.839M244.403 311.942L233.404 347.256M244.403 311.942L222.468 283.668M209.374 321.839C196.684 324.96 188.267 323.317 176.584 328.829C166.141 333.756 153.301 346.59 153.301 346.59M209.374 321.839L194.329 351.193M209.374 321.839L180.733 298.62M153.301 346.59L188.743 350.503C188.743 350.503 190.933 350.841 194.329 351.193M153.301 346.59C153.301 346.59 157.86 326.167 165.115 315.384C170.101 307.973 180.733 298.62 180.733 298.62M180.733 298.62C180.733 298.62 195.533 283.946 208.066 283.476C213.301 283.28 217.841 283.2 222.468 283.668M233.404 347.256C230.225 348.45 226.773 349.489 222.994 350.481C214.32 352.758 201.577 351.944 194.329 351.193" stroke="#BACB7C" stroke-width="5"/>
<path d="M220.93 396.469L187.504 409.767C187.504 409.767 183.274 389.262 185.394 376.137C186.852 367.115 192.588 353.672 192.588 353.672C192.588 353.672 199.899 333.471 210.964 327.104C215.585 324.445 219.631 322.219 223.976 320.445C226.999 319.211 230.166 318.195 233.773 317.404C247.051 314.493 254.061 313.932 267.48 314.711C273.047 324.888 274.447 332.322 273.006 344.036C271.522 356.105 267.133 364.287 259.719 372.367C257.35 374.948 254.673 377.519 251.684 380.202C244.821 386.362 233.044 391.676 226.228 394.439C223.035 395.734 220.93 396.469 220.93 396.469Z" fill="#D5E798"/>
<path d="M271.097 286.935C271.097 286.935 268.893 303.864 267.48 314.711M267.48 314.711C263.668 323.249 260.914 327.897 255.203 335.433M267.48 314.711C273.047 324.888 274.447 332.322 273.006 344.036C271.522 356.105 267.133 364.287 259.719 372.367M267.48 314.711C254.061 313.932 247.051 314.493 233.773 317.404C230.166 318.195 226.999 319.211 223.976 320.445M255.203 335.433C246.423 347.018 238.812 351.321 227.776 360.939M255.203 335.433L259.719 372.367M255.203 335.433L223.976 320.445M227.776 360.939C217.651 369.762 209.421 372.279 201.176 382.771C193.805 392.15 187.504 409.767 187.504 409.767M227.776 360.939L226.228 394.439M227.776 360.939L192.588 353.672M187.504 409.767L220.93 396.469C220.93 396.469 223.035 395.734 226.228 394.439M187.504 409.767C187.504 409.767 183.274 389.262 185.394 376.137C186.852 367.115 192.588 353.672 192.588 353.672M192.588 353.672C192.588 353.672 199.899 333.471 210.964 327.104C215.585 324.445 219.631 322.219 223.976 320.445M259.719 372.367C257.35 374.948 254.673 377.519 251.684 380.202C244.821 386.362 233.044 391.676 226.228 394.439" stroke="#BACB7C" stroke-width="5"/>
<path d="M290.946 383.52L272.593 416.46C272.593 416.46 257.396 403.325 251.435 391.657C247.337 383.637 244.011 369.279 244.011 369.279C244.011 369.279 237.992 348.588 242.927 336.152C244.989 330.957 246.852 326.49 249.212 322.172C250.853 319.169 252.734 316.238 255.088 313.186C263.754 301.95 268.896 296.78 279.814 288.326C290.06 292.505 295.465 297.357 301.138 307.465C306.983 317.88 308.307 327.224 307.213 338.533C306.863 342.145 306.267 345.957 305.492 350.069C303.714 359.506 297.613 371.602 293.9 378.36C292.161 381.526 290.946 383.52 290.946 383.52Z" fill="#D5E798"/>
<path d="M266.519 264.221C266.519 264.221 274.622 278.912 279.814 288.326M279.814 288.326C281.795 297.559 282.344 303.043 282.262 312.777M279.814 288.326C290.06 292.505 295.465 297.357 301.138 307.465C306.983 317.88 308.307 327.224 307.213 338.533M279.814 288.326C268.896 296.78 263.754 301.95 255.088 313.186C252.734 316.238 250.853 319.169 249.212 322.172M282.262 312.777C282.136 327.74 278.697 336.235 275.67 351.188M282.262 312.777L307.213 338.533M282.262 312.777L249.212 322.172M275.67 351.188C272.893 364.905 267.935 372.425 267.592 386.175C267.285 398.467 272.593 416.46 272.593 416.46M275.67 351.188L293.9 378.36M275.67 351.188L244.011 369.279M272.593 416.46L290.946 383.52C290.946 383.52 292.161 381.526 293.9 378.36M272.593 416.46C272.593 416.46 257.396 403.325 251.435 391.657C247.337 383.637 244.011 369.279 244.011 369.279M244.011 369.279C244.011 369.279 237.992 348.588 242.927 336.152C244.989 330.957 246.852 326.49 249.212 322.172M307.213 338.533C306.863 342.145 306.267 345.957 305.492 350.069C303.714 359.506 297.613 371.602 293.9 378.36" stroke="#BACB7C" stroke-width="5"/>
<path d="M339.836 229.063V229.143C339.836 240.116 339.836 255.132 327.561 281.619C318.592 296.231 304.59 310.659 291.632 321.464C285.145 326.873 278.974 331.328 273.899 334.416C271.358 335.961 269.131 337.14 267.303 337.924C265.402 338.739 264.183 339.016 263.566 339.016C261.938 339.016 259.734 338.021 257.008 335.585C254.349 333.209 251.527 329.76 248.695 325.58C243.047 317.243 237.606 306.361 233.555 296.351C229.756 286.013 228.573 272.13 228.575 259.481C228.577 246.864 229.754 235.774 230.502 231.22C232.403 219.641 237.371 205.603 247.02 198.472C251.788 194.949 258.166 192.709 264.63 191.362C271.062 190.022 277.381 189.607 281.867 189.607C286.044 189.607 293.292 190.201 301.009 191.651C308.756 193.108 316.73 195.385 322.496 198.639C335.403 205.924 339.836 217.981 339.836 229.063Z" fill="#FCE2A9" stroke="#FA6B33" stroke-width="5" stroke-linecap="round"/>
<path d="M196.133 129.028C187.851 129.828 177.936 140.682 177.936 140.682C177.936 140.682 181.803 156.124 186.309 165.072C190.634 173.659 200.093 185.29 200.093 185.29C200.093 185.29 207.776 171.881 210.915 162.492C214.118 152.909 216.084 137.052 216.084 137.052C216.084 137.052 204.438 128.226 196.133 129.028Z" fill="#FA6B33" stroke="#FA6B33" stroke-width="5"/>
<path d="M141.181 105.838C127.329 107.643 112.539 128.978 112.539 128.978C112.539 128.978 120.835 91.3048 138.015 89.9592C152.555 88.8203 167.945 114.137 167.945 114.137C167.945 114.137 151.974 104.432 141.181 105.838Z" fill="#33322E" stroke="#33322E" stroke-width="5"/>
<path d="M248.298 103.65C262.15 105.412 276.939 126.252 276.939 126.252C276.939 126.252 268.644 89.4543 251.464 88.14C236.924 87.0276 221.534 111.755 221.534 111.755C221.534 111.755 237.504 102.276 248.298 103.65Z" fill="#33322E" stroke="#33322E" stroke-width="5"/>
<g filter="url(#filter3_f_48_18)">
<ellipse cx="135.158" cy="145.599" rx="28.4787" ry="11.5954" fill="#FABDC2"/>
</g>
<g filter="url(#filter4_f_48_18)">
<ellipse cx="261.559" cy="145.599" rx="28.4787" ry="11.5954" fill="#FABDC2"/>
</g>
<path d="M129.397 132.01L113.588 155.559" stroke="#EE6E89" stroke-width="5"/>
<path d="M143.099 132.01L127.29 155.559" stroke="#EE6E89" stroke-width="5"/>
<path d="M158.909 134.004L143.1 157.553" stroke="#EE6E89" stroke-width="5"/>
<path d="M241.042 130.967L252.895 157.081" stroke="#EE6E89" stroke-width="5"/>
<path d="M255.67 130.965L267.523 157.079" stroke="#EE6E89" stroke-width="5"/>
<path d="M270.223 132.399L282.076 158.513" stroke="#EE6E89" stroke-width="5"/>
<defs>
<filter id="filter0_f_48_18" x="225.901" y="401.13" width="425.579" height="396.653" filterUnits="userSpaceOnUse" color-interpolation-filters="sRGB">
<feFlood flood-opacity="0" result="BackgroundImageFix"/>
<feBlend mode="normal" in="SourceGraphic" in2="BackgroundImageFix" result="shape"/>
<feGaussianBlur stdDeviation="32.4" result="effect1_foregroundBlur_48_18"/>
</filter>
<filter id="filter1_f_48_18" x="350.011" y="379.372" width="262.446" height="281.975" filterUnits="userSpaceOnUse" color-interpolation-filters="sRGB">
<feFlood flood-opacity="0" result="BackgroundImageFix"/>
<feBlend mode="normal" in="SourceGraphic" in2="BackgroundImageFix" result="shape"/>
<feGaussianBlur stdDeviation="32.4" result="effect1_foregroundBlur_48_18"/>
</filter>
<filter id="filter2_f_48_18" x="335.089" y="439.94" width="262.446" height="281.975" filterUnits="userSpaceOnUse" color-interpolation-filters="sRGB">
<feFlood flood-opacity="0" result="BackgroundImageFix"/>
<feBlend mode="normal" in="SourceGraphic" in2="BackgroundImageFix" result="shape"/>
<feGaussianBlur stdDeviation="32.4" result="effect1_foregroundBlur_48_18"/>
</filter>
<filter id="filter3_f_48_18" x="38.8797" y="66.2039" width="192.557" height="158.791" filterUnits="userSpaceOnUse" color-interpolation-filters="sRGB">
<feFlood flood-opacity="0" result="BackgroundImageFix"/>
<feBlend mode="normal" in="SourceGraphic" in2="BackgroundImageFix" result="shape"/>
<feGaussianBlur stdDeviation="33.9" result="effect1_foregroundBlur_48_18"/>
</filter>
<filter id="filter4_f_48_18" x="165.28" y="66.2039" width="192.557" height="158.791" filterUnits="userSpaceOnUse" color-interpolation-filters="sRGB">
<feFlood flood-opacity="0" result="BackgroundImageFix"/>
<feBlend mode="normal" in="SourceGraphic" in2="BackgroundImageFix" result="shape"/>
<feGaussianBlur stdDeviation="33.9" result="effect1_foregroundBlur_48_18"/>
</filter>
</defs>
</svg>
