<svg width="1280" height="960" viewBox="0 0 1280 960" fill="none" xmlns="http://www.w3.org/2000/svg">
<rect opacity="0.66" width="1280" height="960" fill="#FDFAE7"/>
<mask id="mask0_50_222" style="mask-type:alpha" maskUnits="userSpaceOnUse" x="0" y="0" width="1280" height="960">
<rect opacity="0.66" width="1280" height="960" fill="#FDFAE7"/>
</mask>
<g mask="url(#mask0_50_222)">
<path d="M0 800H1278" stroke="#F59BA9" stroke-width="8" stroke-linecap="round"/>
<path d="M160 1147L160 -131" stroke="#F59BA9" stroke-width="8" stroke-linecap="round"/>
<path d="M320 1147L320 -131" stroke="#F59BA9" stroke-width="8" stroke-linecap="round"/>
<path d="M480 1147L480 -131" stroke="#F59BA9" stroke-width="8" stroke-linecap="round"/>
<path d="M640 1147L640 -131" stroke="#F59BA9" stroke-width="8" stroke-linecap="round"/>
<path d="M800 1147L800 -131" stroke="#F59BA9" stroke-width="8" stroke-linecap="round"/>
<path d="M960 1147L960 -131" stroke="#F59BA9" stroke-width="8" stroke-linecap="round"/>
<path d="M1120 1147V-131" stroke="#F59BA9" stroke-width="8" stroke-linecap="round"/>
<path d="M0 640H1281.5" stroke="#F59BA9" stroke-width="8" stroke-linecap="round"/>
<path d="M0 480H1278.5" stroke="#F59BA9" stroke-width="8" stroke-linecap="round"/>
<path d="M0 320H1281.5" stroke="#F59BA9" stroke-width="8" stroke-linecap="round"/>
<path d="M0 160H1292.5" stroke="#F59BA9" stroke-width="8" stroke-linecap="round"/>
<path d="M203.6 895L191.85 863.7H191.65C191.717 864.367 191.767 865.217 191.8 866.25C191.867 867.283 191.917 868.417 191.95 869.65C191.983 870.85 192 872.083 192 873.35V895H187.85V859.3H194.5L205.5 888.55H205.7L216.9 859.3H223.5V895H219.05V873.05C219.05 871.883 219.067 870.733 219.1 869.6C219.133 868.433 219.183 867.35 219.25 866.35C219.317 865.317 219.367 864.45 219.4 863.75H219.2L207.3 895H203.6ZM255.911 881.55C255.911 883.783 255.611 885.767 255.011 887.5C254.445 889.2 253.611 890.65 252.511 891.85C251.445 893.05 250.128 893.967 248.561 894.6C247.028 895.2 245.311 895.5 243.411 895.5C241.645 895.5 240.011 895.2 238.511 894.6C237.011 893.967 235.711 893.05 234.611 891.85C233.511 890.65 232.645 889.2 232.011 887.5C231.411 885.767 231.111 883.783 231.111 881.55C231.111 878.583 231.611 876.083 232.611 874.05C233.611 871.983 235.045 870.417 236.911 869.35C238.778 868.25 240.995 867.7 243.561 867.7C245.995 867.7 248.128 868.25 249.961 869.35C251.828 870.417 253.278 871.983 254.311 874.05C255.378 876.083 255.911 878.583 255.911 881.55ZM235.661 881.55C235.661 883.65 235.928 885.483 236.461 887.05C237.028 888.583 237.895 889.767 239.061 890.6C240.228 891.433 241.711 891.85 243.511 891.85C245.311 891.85 246.795 891.433 247.961 890.6C249.128 889.767 249.978 888.583 250.511 887.05C251.078 885.483 251.361 883.65 251.361 881.55C251.361 879.417 251.078 877.6 250.511 876.1C249.945 874.6 249.078 873.45 247.911 872.65C246.778 871.817 245.295 871.4 243.461 871.4C240.728 871.4 238.745 872.3 237.511 874.1C236.278 875.9 235.661 878.383 235.661 881.55ZM275.785 867.7C278.985 867.7 281.401 868.483 283.035 870.05C284.668 871.583 285.485 874.083 285.485 877.55V895H281.135V877.85C281.135 875.683 280.651 874.067 279.685 873C278.718 871.933 277.201 871.4 275.135 871.4C272.168 871.4 270.118 872.233 268.985 873.9C267.851 875.567 267.285 877.967 267.285 881.1V895H262.885V868.2H266.435L267.085 871.85H267.335C267.935 870.917 268.668 870.15 269.535 869.55C270.435 868.917 271.418 868.45 272.485 868.15C273.551 867.85 274.651 867.7 275.785 867.7Z" fill="black"/>
<path d="M369.15 897H364.65V865.25H353.5V861.3H380.25V865.25H369.15V897ZM404.943 870.2V897H401.343L400.693 893.45H400.493C399.926 894.383 399.193 895.15 398.293 895.75C397.393 896.35 396.41 896.783 395.343 897.05C394.276 897.35 393.16 897.5 391.993 897.5C389.86 897.5 388.06 897.167 386.593 896.5C385.16 895.8 384.076 894.733 383.343 893.3C382.61 891.867 382.243 890.017 382.243 887.75V870.2H386.693V887.45C386.693 889.583 387.176 891.183 388.143 892.25C389.11 893.317 390.61 893.85 392.643 893.85C394.643 893.85 396.21 893.483 397.343 892.75C398.51 891.983 399.326 890.883 399.793 889.45C400.293 887.983 400.543 886.217 400.543 884.15V870.2H404.943ZM423.801 869.7C426.101 869.7 428.068 870.2 429.701 871.2C431.368 872.2 432.635 873.617 433.501 875.45C434.401 877.25 434.851 879.367 434.851 881.8V884.45H416.501C416.568 887.483 417.335 889.8 418.801 891.4C420.301 892.967 422.385 893.75 425.051 893.75C426.751 893.75 428.251 893.6 429.551 893.3C430.885 892.967 432.251 892.5 433.651 891.9V895.75C432.285 896.35 430.935 896.783 429.601 897.05C428.268 897.35 426.685 897.5 424.851 897.5C422.318 897.5 420.068 896.983 418.101 895.95C416.168 894.917 414.651 893.383 413.551 891.35C412.485 889.283 411.951 886.767 411.951 883.8C411.951 880.867 412.435 878.35 413.401 876.25C414.401 874.15 415.785 872.533 417.551 871.4C419.351 870.267 421.435 869.7 423.801 869.7ZM423.751 873.3C421.651 873.3 419.985 873.983 418.751 875.35C417.551 876.683 416.835 878.55 416.601 880.95H430.251C430.251 879.417 430.018 878.083 429.551 876.95C429.085 875.817 428.368 874.933 427.401 874.3C426.468 873.633 425.251 873.3 423.751 873.3Z" fill="black"/>
<path d="M556.85 861.3L547.35 897H542.8L535.85 873.6C535.65 872.9 535.45 872.183 535.25 871.45C535.05 870.717 534.867 870.017 534.7 869.35C534.533 868.683 534.383 868.117 534.25 867.65C534.15 867.15 534.083 866.783 534.05 866.55C534.017 866.783 533.95 867.15 533.85 867.65C533.783 868.117 533.667 868.683 533.5 869.35C533.333 870.017 533.15 870.733 532.95 871.5C532.783 872.233 532.583 872.983 532.35 873.75L525.6 897H521.05L511.6 861.3H516.3L521.85 883.1C522.05 883.867 522.233 884.633 522.4 885.4C522.567 886.133 522.717 886.867 522.85 887.6C523.017 888.3 523.15 888.983 523.25 889.65C523.35 890.317 523.45 890.967 523.55 891.6C523.65 890.933 523.75 890.25 523.85 889.55C523.983 888.85 524.133 888.133 524.3 887.4C524.467 886.633 524.65 885.867 524.85 885.1C525.05 884.333 525.25 883.583 525.45 882.85L531.75 861.3H536.4L542.95 883C543.183 883.767 543.4 884.55 543.6 885.35C543.8 886.117 543.983 886.867 544.15 887.6C544.317 888.333 544.45 889.05 544.55 889.75C544.683 890.417 544.8 891.033 544.9 891.6C545 890.767 545.133 889.9 545.3 889C545.467 888.067 545.667 887.1 545.9 886.1C546.133 885.1 546.383 884.083 546.65 883.05L552.15 861.3H556.85ZM571.108 869.7C573.408 869.7 575.374 870.2 577.008 871.2C578.674 872.2 579.941 873.617 580.808 875.45C581.708 877.25 582.158 879.367 582.158 881.8V884.45H563.808C563.874 887.483 564.641 889.8 566.108 891.4C567.608 892.967 569.691 893.75 572.358 893.75C574.058 893.75 575.558 893.6 576.858 893.3C578.191 892.967 579.558 892.5 580.958 891.9V895.75C579.591 896.35 578.241 896.783 576.908 897.05C575.574 897.35 573.991 897.5 572.158 897.5C569.624 897.5 567.374 896.983 565.408 895.95C563.474 894.917 561.958 893.383 560.858 891.35C559.791 889.283 559.258 886.767 559.258 883.8C559.258 880.867 559.741 878.35 560.708 876.25C561.708 874.15 563.091 872.533 564.858 871.4C566.658 870.267 568.741 869.7 571.108 869.7ZM571.058 873.3C568.958 873.3 567.291 873.983 566.058 875.35C564.858 876.683 564.141 878.55 563.908 880.95H577.558C577.558 879.417 577.324 878.083 576.858 876.95C576.391 875.817 575.674 874.933 574.708 874.3C573.774 873.633 572.558 873.3 571.058 873.3ZM598.48 897.5C595.147 897.5 592.48 896.35 590.48 894.05C588.48 891.717 587.48 888.25 587.48 883.65C587.48 879.05 588.48 875.583 590.48 873.25C592.514 870.883 595.197 869.7 598.53 869.7C599.93 869.7 601.147 869.883 602.18 870.25C603.214 870.583 604.114 871.05 604.88 871.65C605.647 872.25 606.297 872.917 606.83 873.65H607.13C607.097 873.217 607.03 872.583 606.93 871.75C606.864 870.883 606.83 870.2 606.83 869.7V859H611.23V897H607.68L607.03 893.4H606.83C606.297 894.167 605.647 894.867 604.88 895.5C604.114 896.1 603.197 896.583 602.13 896.95C601.097 897.317 599.88 897.5 598.48 897.5ZM599.18 893.85C602.014 893.85 603.997 893.083 605.13 891.55C606.297 889.983 606.88 887.633 606.88 884.5V883.7C606.88 880.367 606.33 877.817 605.23 876.05C604.13 874.25 602.097 873.35 599.13 873.35C596.764 873.35 594.98 874.3 593.78 876.2C592.614 878.067 592.03 880.583 592.03 883.75C592.03 886.95 592.614 889.433 593.78 891.2C594.98 892.967 596.78 893.85 599.18 893.85Z" fill="black"/>
<path d="M694.15 897H689.65V865.25H678.5V861.3H705.25V865.25H694.15V897ZM714.433 870.15C714.433 870.783 714.4 871.433 714.333 872.1C714.3 872.767 714.25 873.367 714.183 873.9H714.483C715.05 872.967 715.767 872.2 716.633 871.6C717.5 871 718.467 870.55 719.533 870.25C720.6 869.917 721.7 869.75 722.833 869.75C725 869.75 726.8 870.1 728.233 870.8C729.7 871.467 730.8 872.517 731.533 873.95C732.267 875.383 732.633 877.25 732.633 879.55V897H728.283V879.85C728.283 877.683 727.8 876.067 726.833 875C725.867 873.933 724.35 873.4 722.283 873.4C720.283 873.4 718.717 873.783 717.583 874.55C716.45 875.283 715.633 876.383 715.133 877.85C714.667 879.283 714.433 881.05 714.433 883.15V897H710.033V859H714.433V870.15ZM763.341 870.2V897H759.741L759.091 893.45H758.891C758.325 894.383 757.591 895.15 756.691 895.75C755.791 896.35 754.808 896.783 753.741 897.05C752.675 897.35 751.558 897.5 750.391 897.5C748.258 897.5 746.458 897.167 744.991 896.5C743.558 895.8 742.475 894.733 741.741 893.3C741.008 891.867 740.641 890.017 740.641 887.75V870.2H745.091V887.45C745.091 889.583 745.575 891.183 746.541 892.25C747.508 893.317 749.008 893.85 751.041 893.85C753.041 893.85 754.608 893.483 755.741 892.75C756.908 891.983 757.725 890.883 758.191 889.45C758.691 887.983 758.941 886.217 758.941 884.15V870.2H763.341Z" fill="black"/>
<path d="M858.35 897H853.85V861.3H873.8V865.25H858.35V877.9H872.85V881.85H858.35V897ZM891.678 869.7C892.178 869.7 892.711 869.733 893.278 869.8C893.878 869.833 894.394 869.9 894.828 870L894.278 874.05C893.844 873.95 893.361 873.867 892.828 873.8C892.328 873.733 891.844 873.7 891.378 873.7C890.344 873.7 889.361 873.917 888.428 874.35C887.494 874.783 886.661 875.4 885.928 876.2C885.194 876.967 884.611 877.9 884.178 879C883.778 880.1 883.578 881.333 883.578 882.7V897H879.178V870.2H882.778L883.278 875.1H883.478C884.044 874.1 884.728 873.2 885.528 872.4C886.328 871.567 887.244 870.917 888.278 870.45C889.311 869.95 890.444 869.7 891.678 869.7ZM904.232 870.2V897H899.832V870.2H904.232ZM902.082 860.15C902.749 860.15 903.332 860.383 903.832 860.85C904.365 861.283 904.632 861.983 904.632 862.95C904.632 863.883 904.365 864.583 903.832 865.05C903.332 865.517 902.749 865.75 902.082 865.75C901.349 865.75 900.732 865.517 900.232 865.05C899.732 864.583 899.482 863.883 899.482 862.95C899.482 861.983 899.732 861.283 900.232 860.85C900.732 860.383 901.349 860.15 902.082 860.15Z" fill="black"/>
<path d="M1026.1 887.45C1026.1 889.583 1025.58 891.4 1024.55 892.9C1023.52 894.367 1022.03 895.5 1020.1 896.3C1018.2 897.1 1015.95 897.5 1013.35 897.5C1012.02 897.5 1010.73 897.433 1009.5 897.3C1008.3 897.167 1007.2 896.983 1006.2 896.75C1005.2 896.483 1004.32 896.167 1003.55 895.8V891.5C1004.75 892.033 1006.23 892.517 1008 892.95C1009.8 893.383 1011.65 893.6 1013.55 893.6C1015.32 893.6 1016.8 893.367 1018 892.9C1019.2 892.433 1020.1 891.767 1020.7 890.9C1021.3 890.033 1021.6 889.017 1021.6 887.85C1021.6 886.683 1021.35 885.7 1020.85 884.9C1020.35 884.1 1019.48 883.367 1018.25 882.7C1017.05 882 1015.37 881.267 1013.2 880.5C1011.67 879.933 1010.32 879.333 1009.15 878.7C1008.02 878.033 1007.07 877.283 1006.3 876.45C1005.53 875.617 1004.95 874.667 1004.55 873.6C1004.18 872.533 1004 871.3 1004 869.9C1004 868 1004.48 866.383 1005.45 865.05C1006.42 863.683 1007.75 862.633 1009.45 861.9C1011.18 861.167 1013.17 860.8 1015.4 860.8C1017.37 860.8 1019.17 860.983 1020.8 861.35C1022.43 861.717 1023.92 862.2 1025.25 862.8L1023.85 866.65C1022.62 866.117 1021.27 865.667 1019.8 865.3C1018.37 864.933 1016.87 864.75 1015.3 864.75C1013.8 864.75 1012.55 864.967 1011.55 865.4C1010.55 865.833 1009.8 866.45 1009.3 867.25C1008.8 868.017 1008.55 868.917 1008.55 869.95C1008.55 871.15 1008.8 872.15 1009.3 872.95C1009.8 873.75 1010.62 874.467 1011.75 875.1C1012.88 875.733 1014.42 876.417 1016.35 877.15C1018.45 877.917 1020.22 878.75 1021.65 879.65C1023.12 880.517 1024.22 881.567 1024.95 882.8C1025.72 884.033 1026.1 885.583 1026.1 887.45ZM1042.84 869.75C1046.11 869.75 1048.52 870.467 1050.09 871.9C1051.66 873.333 1052.44 875.617 1052.44 878.75V897H1049.24L1048.39 893.2H1048.19C1047.42 894.167 1046.62 894.983 1045.79 895.65C1044.99 896.283 1044.06 896.75 1042.99 897.05C1041.96 897.35 1040.69 897.5 1039.19 897.5C1037.59 897.5 1036.14 897.217 1034.84 896.65C1033.57 896.083 1032.57 895.217 1031.84 894.05C1031.11 892.85 1030.74 891.35 1030.74 889.55C1030.74 886.883 1031.79 884.833 1033.89 883.4C1035.99 881.933 1039.22 881.133 1043.59 881L1048.14 880.85V879.25C1048.14 877.017 1047.66 875.467 1046.69 874.6C1045.72 873.733 1044.36 873.3 1042.59 873.3C1041.19 873.3 1039.86 873.517 1038.59 873.95C1037.32 874.35 1036.14 874.817 1035.04 875.35L1033.69 872.05C1034.86 871.417 1036.24 870.883 1037.84 870.45C1039.44 869.983 1041.11 869.75 1042.84 869.75ZM1044.14 884.05C1040.81 884.183 1038.49 884.717 1037.19 885.65C1035.92 886.583 1035.29 887.9 1035.29 889.6C1035.29 891.1 1035.74 892.2 1036.64 892.9C1037.57 893.6 1038.76 893.95 1040.19 893.95C1042.46 893.95 1044.34 893.333 1045.84 892.1C1047.34 890.833 1048.09 888.9 1048.09 886.3V883.9L1044.14 884.05ZM1069.67 893.9C1070.34 893.9 1071.02 893.85 1071.72 893.75C1072.42 893.617 1072.99 893.483 1073.42 893.35V896.7C1072.95 896.933 1072.29 897.117 1071.42 897.25C1070.55 897.417 1069.72 897.5 1068.92 897.5C1067.52 897.5 1066.22 897.267 1065.02 896.8C1063.85 896.3 1062.9 895.45 1062.17 894.25C1061.44 893.05 1061.07 891.367 1061.07 889.2V873.6H1057.27V871.5L1061.12 869.75L1062.87 864.05H1065.47V870.2H1073.22V873.6H1065.47V889.1C1065.47 890.733 1065.85 891.95 1066.62 892.75C1067.42 893.517 1068.44 893.9 1069.67 893.9Z" fill="black"/>
<path d="M189 903.506L283.5 903.001" stroke="black" stroke-width="5" stroke-linecap="round"/>
<path d="M350 903.51L444.5 903.004" stroke="black" stroke-width="5" stroke-linecap="round"/>
<path d="M1185.1 887.45C1185.1 889.583 1184.58 891.4 1183.55 892.9C1182.52 894.367 1181.03 895.5 1179.1 896.3C1177.2 897.1 1174.95 897.5 1172.35 897.5C1171.02 897.5 1169.73 897.433 1168.5 897.3C1167.3 897.167 1166.2 896.983 1165.2 896.75C1164.2 896.483 1163.32 896.167 1162.55 895.8V891.5C1163.75 892.033 1165.23 892.517 1167 892.95C1168.8 893.383 1170.65 893.6 1172.55 893.6C1174.32 893.6 1175.8 893.367 1177 892.9C1178.2 892.433 1179.1 891.767 1179.7 890.9C1180.3 890.033 1180.6 889.017 1180.6 887.85C1180.6 886.683 1180.35 885.7 1179.85 884.9C1179.35 884.1 1178.48 883.367 1177.25 882.7C1176.05 882 1174.37 881.267 1172.2 880.5C1170.67 879.933 1169.32 879.333 1168.15 878.7C1167.02 878.033 1166.07 877.283 1165.3 876.45C1164.53 875.617 1163.95 874.667 1163.55 873.6C1163.18 872.533 1163 871.3 1163 869.9C1163 868 1163.48 866.383 1164.45 865.05C1165.42 863.683 1166.75 862.633 1168.45 861.9C1170.18 861.167 1172.17 860.8 1174.4 860.8C1176.37 860.8 1178.17 860.983 1179.8 861.35C1181.43 861.717 1182.92 862.2 1184.25 862.8L1182.85 866.65C1181.62 866.117 1180.27 865.667 1178.8 865.3C1177.37 864.933 1175.87 864.75 1174.3 864.75C1172.8 864.75 1171.55 864.967 1170.55 865.4C1169.55 865.833 1168.8 866.45 1168.3 867.25C1167.8 868.017 1167.55 868.917 1167.55 869.95C1167.55 871.15 1167.8 872.15 1168.3 872.95C1168.8 873.75 1169.62 874.467 1170.75 875.1C1171.88 875.733 1173.42 876.417 1175.35 877.15C1177.45 877.917 1179.22 878.75 1180.65 879.65C1182.12 880.517 1183.22 881.567 1183.95 882.8C1184.72 884.033 1185.1 885.583 1185.1 887.45ZM1214.09 870.2V897H1210.49L1209.84 893.45H1209.64C1209.07 894.383 1208.34 895.15 1207.44 895.75C1206.54 896.35 1205.56 896.783 1204.49 897.05C1203.42 897.35 1202.31 897.5 1201.14 897.5C1199.01 897.5 1197.21 897.167 1195.74 896.5C1194.31 895.8 1193.22 894.733 1192.49 893.3C1191.76 891.867 1191.39 890.017 1191.39 887.75V870.2H1195.84V887.45C1195.84 889.583 1196.32 891.183 1197.29 892.25C1198.26 893.317 1199.76 893.85 1201.79 893.85C1203.79 893.85 1205.36 893.483 1206.49 892.75C1207.66 891.983 1208.47 890.883 1208.94 889.45C1209.44 887.983 1209.69 886.217 1209.69 884.15V870.2H1214.09ZM1235.5 869.7C1238.7 869.7 1241.12 870.483 1242.75 872.05C1244.38 873.583 1245.2 876.083 1245.2 879.55V897H1240.85V879.85C1240.85 877.683 1240.37 876.067 1239.4 875C1238.43 873.933 1236.92 873.4 1234.85 873.4C1231.88 873.4 1229.83 874.233 1228.7 875.9C1227.57 877.567 1227 879.967 1227 883.1V897H1222.6V870.2H1226.15L1226.8 873.85H1227.05C1227.65 872.917 1228.38 872.15 1229.25 871.55C1230.15 870.917 1231.13 870.45 1232.2 870.15C1233.27 869.85 1234.37 869.7 1235.5 869.7Z" fill="black"/>
<path d="M514 903.51L608.5 903.004" stroke="black" stroke-width="5" stroke-linecap="round"/>
<path d="M678 903.51L772.5 903.004" stroke="black" stroke-width="5" stroke-linecap="round"/>
<path d="M833 903.51L927.5 903.004" stroke="black" stroke-width="5" stroke-linecap="round"/>
<path d="M991 903.51L1085.5 903.004" stroke="black" stroke-width="5" stroke-linecap="round"/>
<path d="M1157 903.51L1251.5 903.004" stroke="black" stroke-width="5" stroke-linecap="round"/>
<circle cx="80" cy="723" r="43" fill="url(#paint0_linear_50_222)"/>
<path d="M48.9683 717.268L69.0312 708.452" stroke="black" stroke-width="5" stroke-linecap="round"/>
<path d="M108.397 717.268L88.334 708.452" stroke="black" stroke-width="5" stroke-linecap="round"/>
<path d="M68 746L79.5 731L89.5 746" stroke="black" stroke-width="5" stroke-linecap="round"/>
<circle cx="80" cy="556" r="43" fill="#DEA185"/>
<path d="M48.9683 550.268L69.0312 541.452" stroke="black" stroke-width="5" stroke-linecap="round"/>
<path d="M61.5 576C61.5 576 72.3389 572.5 79.5 572.5C86.6611 572.5 97.5 576 97.5 576" stroke="black" stroke-width="5" stroke-linecap="round"/>
<path d="M108.397 550.268L88.334 541.452" stroke="black" stroke-width="5" stroke-linecap="round"/>
<circle cx="80" cy="394" r="43" fill="#F9DB5C"/>
<path d="M47.9996 383.251L69.9141 383.3" stroke="black" stroke-width="5" stroke-linecap="round"/>
<path d="M112.18 383.232L90.2655 383.339" stroke="black" stroke-width="5" stroke-linecap="round"/>
<path d="M62 411C62 411 72.8077 411 79.9688 411C87.1298 411 98 411 98 411" stroke="black" stroke-width="5" stroke-linecap="round"/>
<circle cx="79" cy="240" r="43" fill="#C7D8A9"/>
<ellipse cx="62.5" cy="226.5" rx="5.5" ry="7.5" fill="black"/>
<ellipse cx="94.5" cy="226.5" rx="5.5" ry="7.5" fill="black"/>
<path d="M67.0025 246C67.0025 246 66.5027 257 79.5014 257C92.5001 257 93 246 93 246" stroke="black" stroke-width="5" stroke-linecap="round"/>
<circle cx="80" cy="72" r="43" fill="#AEC291"/>
<path d="M79.5014 100C66.5027 100 67.0025 79 67.0025 79H93C93 79 92.5 100 79.5014 100Z" fill="black" stroke="black" stroke-width="5" stroke-linecap="round"/>
<path d="M54.5 60.5C54.5 60.5 55.4453 49.9996 64.5 50C72.5 50.0004 72.5 60.5 72.5 60.5" stroke="black" stroke-width="5" stroke-linecap="round"/>
<path d="M87 60.5C87 60.5 87.9453 49.9996 97 50C105 50.0004 105 60.5 105 60.5" stroke="black" stroke-width="5" stroke-linecap="round"/>
<circle cx="239.5" cy="402.5" r="31.5" fill="#5271FF"/>
<circle cx="400.5" cy="240.5" r="31.5" fill="#5271FF"/>
<ellipse cx="560" cy="240.5" rx="31" ry="31.5" fill="#5271FF"/>
<circle cx="720.5" cy="400.5" r="31.5" fill="#5271FF"/>
<circle cx="1040.5" cy="400.5" r="31.5" fill="#5271FF"/>
<circle cx="880.5" cy="240.5" r="31.5" fill="#5271FF"/>
</g>
<defs>
<linearGradient id="paint0_linear_50_222" x1="81.5" y1="646" x2="80" y2="766" gradientUnits="userSpaceOnUse">
<stop stop-color="#3E4E70"/>
<stop offset="1" stop-color="#E1888A"/>
</linearGradient>
</defs>
</svg>
