<svg width="55.894531" height="55.894531" viewBox="0 0 55.8945 55.8945" fill="none" xmlns="http://www.w3.org/2000/svg" xmlns:xlink="http://www.w3.org/1999/xlink">
	<desc>
			Created with Pixso.
	</desc>
	<defs>
		<linearGradient x1="26.999828" y1="-11.499990" x2="27.947090" y2="55.894184" id="paint_linear_63_98_0" gradientUnits="userSpaceOnUse">
			<stop stop-color="#E38863"/>
			<stop offset="1.000000" stop-color="#EDB39B"/>
		</linearGradient>
		<linearGradient x1="26.999828" y1="-11.499990" x2="27.947090" y2="55.894184" id="paint_linear_63_110_0" gradientUnits="userSpaceOnUse">
			<stop stop-color="#E38863"/>
			<stop offset="1.000000" stop-color="#EDB39B"/>
		</linearGradient>
	</defs>
	<circle id="Ellipse 52" cx="27.947266" cy="27.947266" r="27.947083" fill="url(#paint_linear_63_98_0)" fill-opacity="1.000000"/>
	<mask id="mask63_110" mask-type="alpha" maskUnits="userSpaceOnUse" x="0.000000" y="0.000000" width="55.894531" height="55.894531">
		<circle id="Ellipse 53" cx="27.947266" cy="27.947266" r="27.947083" fill="url(#paint_linear_63_110_0)" fill-opacity="1.000000"/>
	</mask>
	<g mask="url(#mask63_110)">
		<path id="Vector 168" d="M18 45C18 45 18.5 37.5 27 37.5C35.5 37.5 36 45 36 45" stroke="#000000" stroke-opacity="1.000000" stroke-width="3.000000" stroke-linecap="round"/>
	</g>
	<g mask="url(#mask63_110)">
		<path id="Ellipse 63" d="M14 30C17.31 30 20 26.88 20 23.05L9.88 18C8.72 19.26 8 21.06 8 23.05C8 26.88 10.68 30 14 30Z" fill="#000000" fill-opacity="1.000000" fill-rule="nonzero"/>
		<path id="Ellipse 63" d="M20 23.05C20 26.88 17.31 30 14 30C10.68 30 8 26.88 8 23.05C8 21.06 8.72 19.26 9.88 18L20 23.05ZM18.97 23.65Q18.92 24.28 18.76 24.87Q18.68 25.14 18.58 25.41Q18.24 26.36 17.64 27.11Q17.56 27.21 17.48 27.31Q16.84 28.05 16.03 28.48Q15.96 28.52 15.89 28.55Q15.35 28.82 14.77 28.92Q14.39 29 14 29Q13.6 29 13.22 28.92Q12.64 28.82 12.1 28.55Q12.03 28.52 11.96 28.48Q11.15 28.05 10.51 27.31Q10.43 27.21 10.35 27.11Q9.75 26.36 9.41 25.41Q9.31 25.14 9.23 24.87Q9 23.99 9 23.05Q9 22.08 9.25 21.18Q9.33 20.89 9.44 20.6Q9.72 19.86 10.15 19.25L18.97 23.65Z" fill="#000000" fill-opacity="1.000000" fill-rule="evenodd"/>
	</g>
	<g mask="url(#mask63_110)">
		<path id="Ellipse 64" d="M40 30C36.68 30 34 26.88 34 23.05L44.11 18C45.27 19.26 46 21.06 46 23.05C46 26.88 43.31 30 40 30Z" fill="#000000" fill-opacity="1.000000" fill-rule="nonzero"/>
		<path id="Ellipse 64" d="M34 23.05C34 26.88 36.68 30 40 30C43.31 30 46 26.88 46 23.05C46 21.06 45.27 19.26 44.11 18L34 23.05ZM35.02 23.65Q35.07 24.28 35.23 24.87Q35.31 25.14 35.41 25.41Q35.75 26.36 36.35 27.11Q36.43 27.21 36.51 27.31Q37.15 28.05 37.96 28.48Q38.03 28.52 38.1 28.55Q38.64 28.82 39.22 28.92Q39.6 29 40 29Q40.39 29 40.77 28.92Q41.35 28.82 41.89 28.55Q41.96 28.52 42.03 28.48Q42.84 28.05 43.48 27.31Q43.56 27.21 43.64 27.11Q44.24 26.36 44.58 25.41Q44.68 25.14 44.76 24.87Q45 23.99 45 23.05Q45 22.08 44.74 21.18Q44.66 20.89 44.55 20.6Q44.27 19.86 43.84 19.25L35.02 23.65Z" fill="#000000" fill-opacity="1.000000" fill-rule="evenodd"/>
	</g>
</svg>
